<svg viewBox="0 0 20 20" xmlns="http://www.w3.org/2000/svg"><path d="M17.999 10.001C17.999 12.1406 17.1689 14.1504 15.6592 15.6602C14.1494 17.1699 12.1396 18 10 18C7.86037 18 5.85057 17.1699 4.34082 15.6602C4.22088 15.5402 4.11092 15.4102 4.00098 15.2803V17.9893H2.00098V12.9902C2.00107 12.4405 2.45119 11.9903 3.00098 11.9902H8V13.9902H5.54102C5.61096 14.0702 5.6808 14.1605 5.76074 14.2305C6.89054 15.3602 8.40034 15.9902 10 15.9902C11.5997 15.9902 13.1095 15.3702 14.2393 14.2305C15.3667 13.093 15.9964 11.5969 15.999 10.001H17.999ZM10 2C12.1397 2 14.1494 2.83009 15.6592 4.33984C15.7791 4.45978 15.8891 4.5898 15.999 4.71973V2.00977H17.999V7.00879C17.999 7.55866 17.5489 8.00872 16.999 8.00879H12V6.00977H14.459C14.389 5.92979 14.3192 5.83952 14.2393 5.76953C13.1094 4.63972 11.5997 4.00977 10 4.00977C8.40028 4.00978 6.89055 4.62973 5.76074 5.76953C4.63332 6.90696 4.0036 8.40307 4.00098 9.99902H2.00098C2.00098 7.85946 2.83118 5.84958 4.34082 4.33984C5.85056 2.8301 7.86036 2.00001 10 2Z" fill="currentColor"/></svg>
