<svg viewBox="0 0 20 20" xmlns="http://www.w3.org/2000/svg"><path d="m16 2h-2c0-1.1-.9-2-2-2h-4c-1.1 0-2 .9-2 2h-2c-1.1 0-2 .9-2 2v14c0 1.1.9 2 2 2h12c1.1 0 2-.9 2-2v-14c0-1.1-.9-2-2-2zm-8 0h4v2h-4zm8 16h-12v-14h2c0 1.1.9 2 2 2h4c1.1 0 2-.9 2-2h2zm-4.34-10.31c-.58-.05-1.16.08-1.66.34-.5-.27-1.07-.39-1.66-.34-.88.07-1.68.53-2.2 1.25-.85 1.17-.67 2.87.4 3.94l2.4 2.4c.29.29.68.44 1.06.44s.77-.15 1.06-.44l2.4-2.4c1.07-1.07 1.24-2.77.4-3.94-.52-.72-1.32-1.18-2.2-1.25zm.39 3.77-2.05 2.05-2.05-2.05c-.38-.38-.46-.98-.19-1.36.18-.25.44-.4.74-.42h.08c.26 0 .52.1.71.29l.71.71.71-.71c.21-.21.49-.32.79-.29.3.02.56.17.74.42.27.38.19.98-.19 1.36z" fill="currentColor"/></svg>