<svg viewBox="0 0 20 20" xmlns="http://www.w3.org/2000/svg"><path d="m18 0h-16c-1.1 0-2 .9-2 2v16c0 1.1.9 2 2 2h16c1.1 0 2-.9 2-2v-16c0-1.1-.9-2-2-2zm0 2v8.59l-1.59-1.59c-.78-.78-2.05-.78-2.83 0l-4.59 4.59-.59-.59c-.78-.78-2.05-.78-2.83 0l-3.59 3.59v-14.59zm-14.59 16 3.59-3.59.59.59c.78.78 2.05.78 2.83 0l4.59-4.59 3 3v4.58h-14.59zm3.59-7.5c1.93 0 3.5-1.57 3.5-3.5s-1.57-3.5-3.5-3.5-3.5 1.57-3.5 3.5 1.57 3.5 3.5 3.5zm0-5c.83 0 1.5.67 1.5 1.5s-.67 1.5-1.5 1.5-1.5-.67-1.5-1.5.67-1.5 1.5-1.5z" fill="currentColor"/></svg>