<svg viewBox="0 0 20 20" xmlns="http://www.w3.org/2000/svg"><path d="m12 6h-4v-2h4zm7.56 2.85-.15.15.15.15c.28.28.44.67.44 1.06v5.59c0 .4-.16.78-.44 1.06l-.71.71c-.28.28-.67.44-1.06.44h-15.58c-.4 0-.78-.16-1.06-.44l-.71-.71c-.28-.28-.44-.67-.44-1.06v-5.59c0-.4.16-.78.44-1.06l.15-.15-.15-.15c-.28-.28-.44-.67-.44-1.06v-5.58c0-.4.16-.78.44-1.06l.71-.71c.28-.28.66-.44 1.06-.44h15.59c.4 0 .78.16 1.06.44l.71.71c.28.28.44.67.44 1.06v5.58c0 .4-.16.78-.44 1.06zm-17.56-1.26.41.41h15.17l.41-.42v-5.17l-.41-.41h-15.17l-.41.41zm16 2.83-.41-.41h-15.18l-.41.41v5.17l.41.41h15.17l.41-.42v-5.17zm-13-4.17c.69 0 1.25-.56 1.25-1.25s-.56-1.25-1.25-1.25-1.25.56-1.25 1.25.56 1.25 1.25 1.25zm3 7.75h4v-2h-4zm-3-2.25c-.69 0-1.25.56-1.25 1.25s.56 1.25 1.25 1.25 1.25-.56 1.25-1.25-.56-1.25-1.25-1.25z" fill="currentColor"/></svg>