<svg viewBox="0 0 20 20" xmlns="http://www.w3.org/2000/svg"><g fill="currentColor"><path d="m16 8.97v-.97c2.21 0 4-1.79 4-4s-1.79-4-4-4c-1.44 0-2.75.78-3.45 2h-5.1c-.7-1.22-2.01-2-3.45-2-2.21 0-4 1.8-4 4s1.79 4 4 4v.97c0 .69.14 1.36.41 1.99l1.33 3.06-3.75.02v2l3.37-.02-2.73 1.64 1.03 1.71 3.5-2.1.66 1.53c.32.73 1.04 1.2 1.83 1.2h.69c.8 0 1.52-.47 1.83-1.2l.66-1.51 3.51 2.09 1.02-1.72-2.73-1.62h3.36v-2h-3.75l1.33-3.07c.27-.63.41-1.3.41-1.99zm-2.25 1.2-3.41 7.84h-.69l-3.41-7.84c-.17-.38-.25-.78-.25-1.2v-1.97c0-.55-.45-1-1-1h-1c-1.1 0-2-.9-2-2s.9-2 2-2c.84 0 1.59.54 1.87 1.33.14.4.53.67.95.67h6.36c.42 0 .8-.27.94-.67.28-.8 1.04-1.33 1.87-1.33 1.1 0 2 .9 2 2s-.9 2-2 2h-1c-.55 0-1 .45-1 1v1.97c0 .41-.08.82-.25 1.2z"/><path d="m7.9998 10.5c.66275 0 1.2-.67157 1.2-1.5s-.53725-1.5-1.2-1.5c-.66274 0-1.2.67157-1.2 1.5s.53726 1.5 1.2 1.5z"/><path d="m11.9998 10.5c.6627 0 1.2-.67157 1.2-1.5s-.5373-1.5-1.2-1.5-1.2.67157-1.2 1.5.5373 1.5 1.2 1.5z"/></g></svg>