<svg viewBox="0 0 20 20" xmlns="http://www.w3.org/2000/svg"><path d="m18.4417 7.90001c.4333-.88333 1.8416-4.25-.7084-6.35-.0675-.05204-.1484-.08383-.2333-.09167-1.5917 0-3.7083 2.04167-4.35 2.70834-2.0423-.54321-4.19107-.54321-6.23334 0-.65833-.675-2.75-2.70834-4.35-2.70834-.09387.00119-.18471.03342-.25833.09167-2.2083373 1.78333-1.54167 4.71667-.73334 6.31667-.878027 1.4535-1.263793 3.15142-1.099997 4.84162.216666 2.7584 2.499997 5.8334 5.408337 5.8334h8.23337c2.925 0 5.1916-3.075 5.4-5.8334.173-1.6769-.2043-3.36466-1.075-4.80829zm-5.1084 8.55829h-6.66664c-.77355 0-1.51541-.3072-2.06239-.8542-.54699-.547-.85428-1.2889-.85428-2.0624 0-4.92502 3.43334-2.9417 6.25-2.9417 2.81671 0 6.25001-2.03332 6.25001 2.9417 0 .7735-.3073 1.5154-.8543 2.0624s-1.2888.8542-2.0624.8542z" fill="currentColor"/><g fill="currentColor"><path d="m12.9333 14.7917c.4603 0 .8334-.5597.8334-1.25 0-.6904-.3731-1.25-.8334-1.25-.4602 0-.8333.5596-.8333 1.25 0 .6903.3731 1.25.8333 1.25z"/><path d="m7.1 14.7917c.46023 0 .83333-.5597.83333-1.25 0-.6904-.3731-1.25-.83333-1.25-.46024 0-.83334.5596-.83334 1.25 0 .6903.3731 1.25.83334 1.25z"/></g></svg>