<svg viewBox="0 0 20 20" xmlns="http://www.w3.org/2000/svg"><g transform="translate(20,0) scale(-1,1)"><path d="M18 2a2 2 0 0 1 2 2v9a2 2 0 0 1-1.796 1.99L18 15a3 3 0 1 1-6 0H8a3 3 0 1 1-6 0 2 2 0 0 1-1.99-1.796L0 13V8.828a2 2 0 0 1 .453-1.267l.133-.147 1.828-1.828A2 2 0 0 1 3.828 5H6V4a2 2 0 0 1 2-2zM5 14a1 1 0 1 0 0 2 1 1 0 0 0 0-2m10 0a1 1 0 1 0 0 2 1 1 0 0 0 0-2m-7-1h4.769a2.99 2.99 0 0 1 4.462 0H18V4H8zM2 8.828V13h.769A2.99 2.99 0 0 1 6 12.174V7H3.828zM12.25 6h1.5v1.75h1.75v1.5h-1.75V11h-1.5V9.25H10.5v-1.5h1.75z" fill="currentColor" fill-rule="evenodd" clip-rule="evenodd"/></g></svg>
