<svg viewBox="0 0 20 20" xmlns="http://www.w3.org/2000/svg"><path d="m18.0901 10.9249c-.24-.48-.65-.83-1.16-1.00002l-2.36-.79 2.56-1.1c.36-.15.66-.4.88-.73l1.83-2.75-1.66-1.11-1.84 2.75-1.95.84 1.04-1.04c.38-.38.59-.88.59-1.41v-4.57999719h-2v4.58999719l-2 2v-.59c0-.55-.45-1-1-1s-1 .45-1 1c0-.55-.44998-1-.99998-1s-1 .45-1 1v.59l-2-2v-4.58999719h-2v4.58999719c0 .53.21 1.04.59 1.41l1.04 1.04-1.95-.84-1.86-2.75-1.660003 1.1 1.840003 2.75c.22.32.52.58.88.73l2.56 1.1-2.36.79c-.51.17002-.92.53002-1.16 1.00002l-1.820003 3.63 1.790003.89 1.81-3.63 2.43-.81c-.02.09-.05.17-.07.26l-1.79 2.98c-.19.31-.29.67-.29 1.03v4.72h2v-4.72l.15-.25c.46 1.71 2 2.97 3.84998 2.97 1.85 0 3.39-1.27 3.85-2.97l.15.25v4.72h2v-4.72c0-.36-.1-.72-.29-1.03l-1.79-2.98c-.02-.09-.04-.17-.07-.26l2.43.81 1.81 3.63 1.79-.89-1.81-3.63zm-6.08 3.08c0 1.1-.9 2-2 2-1.09998 0-1.99998-.9-1.99998-2v-2c0-1.1.9-2 1.99998-2 1.1 0 2 .9 2 2z" fill="currentColor"/></svg>