<svg viewBox="0 0 20 20" xmlns="http://www.w3.org/2000/svg"><path d="m19.9412 8.64-.89-3.55c-.11-.42-.35-.8-.69-1.08l-4.46-3.57c-.35-.28-.8-.44-1.25-.44h-5.64998c-.22 0-.44.07-.62.22l-4.74 3.79c-.34.27-.59.65-.689999 1.08l-.8900003 3.55c-.04.16-.06.32-.06.48v8.88c0 1.1.9000003 2 1.9999993 2h15.99998c1.1 0 2-.9 2-2v-8.88c0-.16-.02-.32-.06-.49zm-2.83-3.07.89 3.55v.88h-4v-.88c0-.16-.02-.32-.06-.49l-.89-3.55c-.11-.42-.35-.8-.69-1.08l-2.50998-2.01h2.79998l4.46 3.57zm-9.10998 6.43h2.99998l-2.99998 4zm-2 4-3-4h3zm-4-6.88.89-3.55 4.11-3.29 4.10998 3.29.89 3.55v.88h-9.99998zm0 4.88 3 4h-3zm7 4 2.99998-4v4zm4.99998 0v-6h4v6zm-5.99998-10h-2v-2h2z" fill="currentColor"/></svg>