<svg viewBox="0 0 20 20" xmlns="http://www.w3.org/2000/svg"><path d="m8.2 11c0 .83-.54 1.5-1.2 1.5s-1.2-.67-1.2-1.5.54-1.5 1.2-1.5 1.2.67 1.2 1.5zm4.8-1.5c-.66 0-1.2.67-1.2 1.5s.54 1.5 1.2 1.5 1.2-.67 1.2-1.5-.54-1.5-1.2-1.5zm7-.91-1.41 1.41-1.21-1.21-.72 5.39c-.44 3.32-3.3 5.82-6.65 5.82s-6.21-2.5-6.65-5.82l-.72-5.39-1.21 1.21-1.43-1.42 2.29-2.29-.19-1.39c-.05-.2-.07-.41-.08-.63l-.02-.14s0-.02 0-.03c0-.04-.01-.07-.01-.11.01-2.19 1.8-3.99 4.01-3.99.7 0 1.39.19 2 .55 1.21-.71 2.79-.71 4 0 .61-.36 1.3-.55 2-.55 2.21 0 4 1.8 4 4 0 .04 0 .07-.01.11v.03l-.02.14c-.01.21-.04.42-.08.63l-.19 1.39 2.3 2.3zm-4.5-.88c-.46.19-.97.3-1.5.3-.7 0-1.39-.19-2-.55-1.21.71-2.79.71-4 0-.61.35-1.3.55-2 .55-.53 0-1.03-.11-1.5-.3l.83 6.21c.31 2.33 2.32 4.09 4.67 4.09s4.36-1.76 4.67-4.09zm.5-3.7c0-1.1-.9-2-2-2-.62 0-1.07.28-1.33.52-.38.34-.96.34-1.34 0-.26-.24-.71-.52-1.33-.52s-1.07.28-1.33.52c-.38.34-.96.34-1.34 0-.26-.24-.71-.52-1.33-.52-1.1 0-2 .9-2 2s.9 2 2 2c.62 0 1.07-.28 1.33-.52.38-.34.96-.34 1.34 0 .26.24.71.52 1.33.52s1.07-.28 1.33-.52c.19-.17.43-.26.67-.26s.48.09.67.26c.26.24.71.52 1.33.52 1.1 0 2-.9 2-2z" fill="currentColor"/></svg>