<svg viewBox="0 0 20 20" xmlns="http://www.w3.org/2000/svg"><path d="m20 5c0-2.76-2.24-5-5-5-2.41 0-4.44 1.72-4.9 4h-.2c-.46-2.28-2.49-4-4.9-4-2.76 0-5 2.24-5 5 0 1.09.35 2.12 1 2.98-.65.95-1 1.98-1 3.02 0 3.93 4.39 7 10 7s10-3.07 10-7c0-1.04-.34-2.07-1-3.02.65-.86 1-1.89 1-2.98zm-3.05 3.6c.69.77 1.05 1.58 1.05 2.4 0 2.71-3.66 5-8 5s-8-2.29-8-5c0-.82.35-1.62 1.04-2.4.37-.41.34-1.03-.07-1.4-.63-.58-.98-1.36-.98-2.2 0-1.65 1.35-3 3-3s3 1.35 3 3c0 .55.45 1 1 1h2c.55 0 1-.45 1-1 0-1.65 1.35-3 3-3s3 1.35 3 3c0 .84-.35 1.62-.98 2.2-.4.37-.43 1-.07 1.4zm-11.95-2.1c-.55 0-1-.67-1-1.5s.45-1.5 1-1.5 1 .67 1 1.5-.45 1.5-1 1.5zm11-1.5c0 .83-.45 1.5-1 1.5s-1-.67-1-1.5.45-1.5 1-1.5 1 .67 1 1.5zm-2.26 6.18 1.13 1.65c-1.07.74-2.89 1.18-4.87 1.18s-3.8-.44-4.87-1.18l1.13-1.65c.55.38 1.86.82 3.74.82s3.19-.44 3.74-.82z" fill="currentColor"/></svg>