<svg viewBox="0 0 20 20" xmlns="http://www.w3.org/2000/svg"><path d="m18.7391 11.82-3.76-1.5c-.75-.3-1.59-.12-2.16.44l-1.53 1.53s-.08.08-.11.13c-1.44998-.91-2.69998-2.16-3.60998-3.61.05-.03.09-.07.13-.11l1.53-1.53c.57-.57.74-1.41.44-2.16l-1.5-3.76c-.3-.76-1.02-1.25-1.85-1.25h-1.96c-1.14 0-2.22.45-3.03 1.26-.919996.91-1.3699958 2.16-1.2499958 3.42.7899998 8.07 7.2199958 14.48 15.2899758 15.25.13.01.26.02.39.02 1.09 0 2.15-.44 2.95-1.23l.07-.07c.7-.7 1.22-1.96 1.22-2.95v-2.01c0-.82-.49-1.55-1.26-1.86zm-.74 3.87c0 .45-.31 1.21-.63 1.53l-.07.07c-.47.47-1.1.7-1.73.64-7.11998-.68-12.78998-6.33-13.48998-13.45-.06-.66.18-1.32.67-1.81.43-.43 1.01-.67 1.62-.67h1.96l1.5 3.76-1.24 1.24h-.59c-.34 0-.66.17-.84.46s-.21.65-.07.96c1.3 2.82 3.66 5.19 6.48998 6.49.31.14.67.12.96-.07.29-.18.46-.5.46-.84v-.59l1.24-1.24 3.76 1.5v2.01z" fill="currentColor"/></svg>