<svg xmlns="http://www.w3.org/2000/svg" viewBox="0 0 20 20"><g fill="currentColor"><path d="M6 5a1 1 0 0 1 1-1h4a1 1 0 1 1 0 2H7a1 1 0 0 1-1-1ZM16.15 18.85c0 .64-.51 1.15-1.15 1.15-.64 0-1.15-.51-1.15-1.15 0-.64.51-1.15 1.15-1.15.64 0 1.15.51 1.15 1.15ZM15 8.35c-1.93 0-3.5 1.57-3.5 3.5h2c0-.83.67-1.5 1.5-1.5s1.5.67 1.5 1.5-.67 1.5-1.5 1.5c-.55 0-1 .45-1 1v1.5h2v-.65c1.44-.43 2.5-1.77 2.5-3.35 0-1.93-1.57-3.5-3.5-3.5Z"/><path d="M5 2h8a1 1 0 0 1 1 1v3h2V3a3 3 0 0 0-3-3H5a3 3 0 0 0-3 3v14a3 3 0 0 0 3 3h5.5v-2H5a1 1 0 0 1-1-1V3a1 1 0 0 1 1-1Z"/></g></svg>