<svg viewBox="0 0 20 20" xmlns="http://www.w3.org/2000/svg"><path d="m17.1593 3.04 2.28-1.14-.89-1.79-3.08 1.54c-1.57-1.04-3.45-1.65-5.47003-1.65-2.02 0-3.9.61-5.48 1.64l-3.07-1.53-.900002 1.79 2.280002 1.14c-1.74 1.8-2.83000242 4.25-2.83000242 6.96 0 5.51 4.49000242 10 10.00000242 10 5.51003 0 10.00003-4.49 10.00003-10 0-2.71-1.08-5.16-2.84-6.96zm-6.16 14.96h-2.00003c-1.65 0-3-1.35-3-3s1.35-3 3-3h2.00003c1.65 0 3 1.35 3 3s-1.35 3-3 3zm4.97-2.69c0-.11.03-.2.03-.31 0-2.76-2.24-5-5-5h-2.00003c-2.76 0-5 2.24-5 5 0 .11.03.2.03.31-1.26-1.41-2.03-3.27-2.03-5.31 0-4.41 3.59-8 8-8 4.41003 0 8.00003 3.59 8.00003 8 0 2.04-.77 3.9-2.03 5.31zm-6.97003-.31c0 .55-.45 1-1 1s-1-.45-1-1 .45-1 1-1 1 .45 1 1zm4.00003 0c0 .55-.45 1-1 1s-1-.45-1-1 .45-1 1-1 1 .45 1 1zm-6.80003-6c0 .83-.54 1.5-1.2 1.5s-1.2-.67-1.2-1.5.54-1.5 1.2-1.5 1.2.67 1.2 1.5zm10.00003 0c0 .83-.54 1.5-1.2 1.5s-1.2-.67-1.2-1.5.54-1.5 1.2-1.5 1.2.67 1.2 1.5z" fill="currentColor"/></svg>