<svg viewBox="0 0 20 20" xmlns="http://www.w3.org/2000/svg"><path d="m15.63 7.02752c.08-.19.16-.37.24-.57.93-2.62.89-5.64-.98-6.33-.37-.14-.96-.23-1.69.11-1.19.55-2.37 2.13-3.07 4.11-.04.13-.09.25-.13.39-.04-.13-.09-.26-.13-.39-.7-1.98-1.88-3.56-3.07-4.11-.73-.34-1.32-.25-1.69-.11-1.87.7-1.91 3.71-.98 6.33.07.2.16.38.24.57-2.01 1.23-3.37 3.43998-3.37 5.96998 0 3.86 3.14 7 7 7h4c3.86 0 7-3.14 7-7 0-2.53-1.35-4.73998-3.37-5.96998zm-3.63 10.96998h-4c-2.76 0-5-2.24-5-5 0-1.77.93-3.31998 2.32-4.20998.16.23.33.45.51.66l1.68-1.12c-.58-.58-1.12-1.49-1.49-2.54-.74-2.09-.47-3.61-.22-3.79.29.02 1.43.87 2.19 3.02.49 1.4.89 3.42 1 3.98h2.03c.11-.57.5-2.59 1-3.98.76-2.14 1.89-3.03 2.16-3.02.28.19.54 1.71-.2 3.8-.37 1.05-.91 1.96-1.49 2.54l1.68 1.12c.17-.2.34-.42.51-.66 1.39.89 2.32 2.43998 2.32 4.20998 0 2.76-2.24 5-5 5zm-.29-3.71c.39.39.39 1.02 0 1.41-.2.2-.45.29-.71.29s-.51-.1-.71-.29l-.29-.29-.29.29c-.39.39-1.02.39-1.41 0s-.39-1.02 0-1.41l1-1c.39-.39 1.02-.39 1.41 0zm-3.51-1.29c0 .83-.54 1.5-1.2 1.5s-1.2-.67-1.2-1.5.54-1.5 1.2-1.5 1.2.67 1.2 1.5zm6 0c0 .83-.54 1.5-1.2 1.5s-1.2-.67-1.2-1.5.54-1.5 1.2-1.5 1.2.67 1.2 1.5z" fill="currentColor"/></svg>