<svg viewBox="0 0 20 20" xmlns="http://www.w3.org/2000/svg"><g fill="currentColor"><path d="M16 0H4c-1.1 0-2 .9-2 2v16c0 1.1.9 2 2 2h12c1.1 0 2-.9 2-2V2c0-1.1-.9-2-2-2zm0 18H4V2h12z"/><path d="M5 4h10v3H5z"/><rect x="5" y="9" width="2.5" height="2"/><rect x="8.75" y="9" width="2.5" height="2"/><rect x="12.5" y="9" width="2.5" height="2"/><rect x="5" y="12" width="2.5" height="2"/><rect x="8.75" y="12" width="2.5" height="2"/><rect x="12.5" y="12" width="2.5" height="2"/><rect x="5" y="15" width="2.5" height="2"/><rect x="8.75" y="15" width="2.5" height="2"/><rect x="12.5" y="15" width="2.5" height="2"/></g></svg>
