<svg viewBox="0 0 20 20" xmlns="http://www.w3.org/2000/svg"><path d="m18.0139 0v1c0 .55-.4502 1-1.0005 1h-3.0015v.64c-.5203-.41-1.1606-.64-1.8309-.64h-4.3422c-.67034 0-1.31066.23-1.83092.64v-.64h-3.0015c-.55027 0-1.0005-.45-1.0005-1v-1h-2.00099719v1c0 1.65 1.35067719 3 3.00149719 3h1.64082c-.4102.52-.64032 1.16-.64032 1.83v1.11c0 .78.09005 1.56.25013 2.31l1.26063 5.66c-.32016.47-.51026 1-.51026 1.59 0 1.53 1.1906 2.74 3.01151 3.24.38019.17.79039.26 1.22061.26h1.5308c.4302 0 .8504-.09 1.2206-.26 1.8209-.51 3.0115-1.72 3.0115-3.24 0-.59-.1901-1.12-.5103-1.59l1.2607-5.66c.17-.76.2501-1.54.2501-2.31v-1.11c0-.67-.2301-1.31-.6403-1.83h1.6408c1.6508 0 3.0015-1.35 3.0015-3v-1h-2.001zm-10.88546 4.29c.1901-.19.44022-.29.71036-.29h4.3422c.2701 0 .5202.1.7103.29l.8304.83c.1901.19.2902.44.2902.71v1.11c0 .46-.05.91-.1201 1.36-.1701-.47-.5002-.8-.8804-.8-.5503 0-1.0005.67-1.0005 1.5s.4502 1.5 1.0005 1.5c.1701 0 .3201-.07.4602-.17l-.7103 3.21c-.7704-.34-1.7109-.53-2.7514-.53-1.04054 0-1.971.2-2.75139.53l-.71036-3.21c.14007.11.29015.17.46023.17.55028 0 1.0005-.67 1.0005-1.5s-.45022-1.5-1.0005-1.5c-.38019 0-.71035.33-.88044.8-.07003-.45-.12006-.9-.12006-1.36v-1.11c0-.27.10005-.52.29015-.71zm2.88146 13.71c-1.24064 0-2.31117-.38-2.7614-.92-.15007-.18-.24012-.38-.24012-.58s.08004-.4.24012-.58c.46023-.54 1.52076-.92 2.7614-.92 1.2406 0 2.3111.38 2.7614.92.15.18.2401.38.2401.58s-.0801.4-.2401.58c-.4603.54-1.5208.92-2.7614.92z" fill="currentColor"/></svg>