<svg viewBox="0 0 20 20" xmlns="http://www.w3.org/2000/svg"><path d="m7.2001 10.0053c0 .8304-.54 1.5008-1.2 1.5008s-1.2-.6704-1.2-1.5008c0-.83047.54-1.50082 1.2-1.50082s1.2.67035 1.2 1.50082zm12.8-3.00161v6.00311c0 .4403-.29.8305-.71.9606-.1.03-.19.04-.29.04-.33 0-.64-.1601-.83-.4503l-.9-1.3507c-1.04 2.2612-2.71 4.0021-4.69 4.9626l.13.1301c.39.3902.39 1.0205 0 1.4107-.2.2002-.45.2902-.71.2902s-.51-.1001-.71-.2902l-.84-.8404c-.48.0901-.96.1301-1.45.1301-4 .01-7.57-2.9716-8.880002-7.4139-.1100003-.3702-.1100003-.78044 0-1.15063 1.270002-4.28226 4.630002-7.2038 8.450002-7.41391l1.43-1.430749c.38-.3802.88-.590311 1.41-.590311h1.59c.4 0 .77.240126.92.620326.15.370195.07.800424-.22 1.090574l-1.13 1.1306c1.98.9605 3.65 2.70142 4.69 4.96261l.9-1.35071c.24-.3702.7-.53028 1.12-.40021.42.13006.71.52027.71.9605zm-4.04 3.01161c-1.06-3.60192-3.85-6.01319-6.96-6.01319s-5.9 2.41127-6.96 5.99315c1.06 3.60194 3.85 6.01314 6.96 6.01314s5.9-2.4112 6.96-5.9931z" fill="currentColor"/></svg>