<svg viewBox="0 0 20 20" xmlns="http://www.w3.org/2000/svg"><path d="m8.2 10.0074c0 .8302-.54 1.5005-1.2 1.5005s-1.2-.6703-1.2-1.5005c0-.8303.54-1.50052 1.2-1.50052s1.2.67022 1.2 1.50052zm4.8-1.50052c-.66 0-1.2.67022-1.2 1.50052 0 .8302.54 1.5005 1.2 1.5005s1.2-.6703 1.2-1.5005c0-.8303-.54-1.50052-1.2-1.50052zm7 5.50182h-2.59l2 2.0006-1.41 1.4105-2.07-2.0707c-1.47 1.6206-3.58 2.6509-5.93 2.6509s-4.47-1.0303-5.93-2.6509l-2.07 2.0707-1.41-1.4105 2-2.0006h-2.59v-2.0007h2.26c-.17-.6402-.26-1.3104-.26-2.0006v-9.00299c0-.400133.24-.770255.62-.9203041.37-.1600527.8-.070023 1.09.2200721l2.61 2.610862c2.27-1.19039 5.09-1.19039 7.36 0l2.61-2.620865c.29-.29009545.71-.3701218 1.09-.2200724.37.1500494.62.5201714.62.9203024v9.012995c0 .6902-.1 1.3604-.26 2.0006h2.26zm-5.48-.07-.23-.2301c-.29-.2901-.37-.7202-.22-1.0904.15-.3701.52-.6202.92-.6202h.65c.22-.6302.35-1.3004.35-2.00063v-6.58217l-1.45 1.45048c-.34.34011-.86.39013-1.26.13004-1.97-1.30043-4.62-1.30043-6.58 0-.4.26009-.92.21007-1.26-.13004l-1.45-1.45048v6.5922c0 .7002.13 1.3704.35 2.0006h.65c.4 0 .77.2401.92.6202.15.3702.07.8003-.22 1.0904l-.23.2301c1.1 1.2604 2.72 2.0706 4.52 2.0706s3.42-.8002 4.52-2.0706zm-3.81-2.6409c-.39-.3901-1.02-.3901-1.41 0l-1 1.0003c-.39.3902-.39 1.0204 0 1.4105s1.02.3901 1.41 0l.29-.2901.29.2901c.2.2001.45.2901.71.2901s.51-.1.71-.2901c.39-.3901.39-1.0203 0-1.4105z" fill="currentColor"/></svg>