<svg xmlns="http://www.w3.org/2000/svg" viewBox="0 0 20 20"><g clip-path="url(#a)"><mask id="b" width="20" height="20" x="0" y="0" maskUnits="userSpaceOnUse" style="mask-type:luminance"><path fill="#fff" d="M20 0H0v20h20z"/></mask><g mask="url(#b)"><path fill="currentColor" d="M14 0a4 4 0 0 1 4 4v12a4 4 0 0 1-4 4H4l-.204-.011a2 2 0 0 1-1.785-1.785L2 18V2a2 2 0 0 1 2-2zM4 18h10a2 2 0 0 0 2-2V4a2 2 0 0 0-2-2H4zm10-2H6v-2h8zM10 4a4 4 0 1 1 0 8 4 4 0 0 1 0-8m0 2a2 2 0 1 0 0 4 2 2 0 0 0 0-4"/></g></g><defs><clipPath id="a"><path fill="#fff" d="M0 0h20v20H0z"/></clipPath></defs></svg>