<svg viewBox="0 0 20 20" xmlns="http://www.w3.org/2000/svg"><path d="m13 10.5002c-.66 0-1.2-.66996-1.2-1.49996s.54-1.5 1.2-1.5 1.2.67 1.2 1.5-.54 1.49996-1.2 1.49996zm6.87 4.61-1.74-9.46996c-.13-.7-.61-1.25-1.24-1.5l1.9-2.54c.23-.3.26-.709996.09-1.049996s-.5-.54999986-.88-.54999986h-6c-6.62 0-12 5.37999586-12 11.99995586v6h2v-6c0-5.50996 4.49-9.99996 10-9.99996h4l-1.8 2.4c-.23.3-.26.71-.09 1.05s.52.55.89.55h1.17l1.77 9.53996c.13.51.06 1.03-.2 1.48s-.69.77-1.19.9c-1.04.27-2.11-.35-2.38-1.4-.01-.04-.47-1.2-.47-1.2-.33-.82-1.13-1.32-2.01-1.24-1.59.14-3-.74-3.61-2.22-.53-1.31-.19-2.89996.83-3.86996l-1.38-1.45c-1.63 1.55-2.15 3.98996-1.3 6.07996.93 2.27 3.19 3.66 5.61 3.45l.41 1.02c.49 1.74 2.08 2.89 3.81 2.89.33 0 .66-.04 1-.13 2.11-.55 3.36-2.72 2.83-4.75z" fill="currentColor"/></svg>