<svg viewBox="0 0 20 20" xmlns="http://www.w3.org/2000/svg"><path d="m19.76 5.39331c-.27-1.75095-1.42-3.26178-3-3.96216-4.32-1.901038-9.2-1.901038-13.52 0-1.58.69038-2.73 2.21121-3 3.96216-.16 1.03057-.24 2.08114-.24 3.1117s.08 2.08109.24 3.11169c.27 1.751 1.42 3.2618 3 3.9622.9.4002 1.83.6904 2.76.9205v2.5113c0 .4003.24.7705.62.9206.37.15.8.07 1.09-.2202l2.29-2.2912 2.29 2.2912c.19.1901.45.2902.71.2902.13 0 .26-.02.38-.0801.37-.15.62-.5202.62-.9205v-2.5113c.94-.2302 1.86-.5303 2.76-.9205 1.58-.6904 2.72-2.2112 3-3.9622.16-1.0306.24-2.08113.24-3.11169 0-1.03057-.08-2.08114-.24-3.1117zm-7.76 11.20609-1.29-1.2907c-.2-.2001-.45-.2901-.71-.2901s-.51.1-.71.2901l-1.29 1.2907v-4.5925h4zm5.78-5.2829c-.17 1.0806-.87 2.0111-1.82 2.4314-.64.2801-1.3.5002-1.96.6803v-2.4213h2v-2.0011h-12v2.0011h2v2.4213c-.66-.1901-1.32-.4002-1.96-.6803-.96-.4203-1.66-1.3508-1.82-2.4314-.14-.9305-.22-1.87097-.22-2.80148s.07-1.88103.22-2.80153c.17-1.08059.87-2.0111 1.82-2.43133 3.81-1.67091 8.11-1.67091 11.92 0 .96.42023 1.66 1.35074 1.82 2.43133.14.93051.22 1.87102.22 2.80153s-.07 1.88098-.22 2.80148zm-11.58-4.31231c0 .83046-.54 1.50082-1.2 1.50082s-1.2-.67036-1.2-1.50082c0-.83045.54-1.50082 1.2-1.50082s1.2.67037 1.2 1.50082zm10 0c0 .83046-.54 1.50082-1.2 1.50082s-1.2-.67036-1.2-1.50082c0-.83045.54-1.50082 1.2-1.50082s1.2.67037 1.2 1.50082z" fill="currentColor"/></svg>