<svg xmlns="http://www.w3.org/2000/svg" viewBox="0 0 20 20"><g fill="currentColor"><path d="M6 5a1 1 0 0 1 1-1h4a1 1 0 1 1 0 2H7a1 1 0 0 1-1-1Z"/><path fill-rule="evenodd" d="M10 15c0-2.76 2.24-5 5-5s5 2.24 5 5-2.24 5-5 5-5-2.24-5-5Zm5 3c-.46 0-.89-.11-1.29-.3l3.98-3.98c.19.39.3.82.3 1.29 0 1.65-1.35 3-3 3L15 18Zm1.29-5.7c-.4-.19-.83-.3-1.29-.3l.01-.01c-1.65 0-3 1.35-3 3 0 .47.11.9.3 1.29l3.98-3.98Z" clip-rule="evenodd"/><path d="M5 2h8a1 1 0 0 1 1 1v5h2V3a3 3 0 0 0-3-3H5a3 3 0 0 0-3 3v14a3 3 0 0 0 3 3h4v-2H5a1 1 0 0 1-1-1V3a1 1 0 0 1 1-1Z"/></g></svg>