<svg xmlns="http://www.w3.org/2000/svg" viewBox="0 0 20 20"><g clip-path="url(#a)"><mask id="b" width="20" height="20" x="0" y="0" maskUnits="userSpaceOnUse" style="mask-type:luminance"><path fill="#fff" d="M20 0H0v20h20z"/></mask><g mask="url(#b)"><path fill="currentColor" fill-rule="evenodd" d="M18 2a2 2 0 0 1 2 2v9a2 2 0 0 1-1.796 1.99L18 15a3 3 0 1 1-6 0H8a3 3 0 1 1-6 0 2 2 0 0 1-1.99-1.796L0 13V8.828a2 2 0 0 1 .453-1.267l.133-.147 1.828-1.828A2 2 0 0 1 3.828 5H6V4a2 2 0 0 1 2-2zM5 14a1 1 0 1 0 0 2 1 1 0 0 0 0-2m10 0a1 1 0 1 0 0 2 1 1 0 0 0 0-2m-7-1h4.769a2.99 2.99 0 0 1 4.462 0H18V4H8zM2 8.828V13h.769A2.99 2.99 0 0 1 6 12.174V7H3.828z" clip-rule="evenodd"/></g></g><defs><clipPath id="a"><path fill="#fff" d="M0 0h20v20H0z"/></clipPath></defs></svg>