<svg viewBox="0 0 20 20" xmlns="http://www.w3.org/2000/svg"><path d="m16 12h4v-2h-4v-.99999c0-.46-.11-.88-.29-1.27l1.71-1.71c.38-.38.59-.88.59-1.41v-2.61h-2v2.61l-1.7 1.7c-.1-.05-.2-.09-.3-.12v-.18c0-1.2-.54-2.27-1.38-3 .84-.73 1.38-1.8 1.38-3.0000002h-2c0 1.1000002-.9 2.0000002-2 2.0000002s-2-.9-2-2.0000002h-2c0 1.2000002.54 2.2700002 1.38 3.0000002-.84.73-1.38 1.8-1.38 3v.18c-.1.03-.19.07-.29.12l-1.71-1.71v-2.6h-2.01v2.59c0 .53.21 1.04.59 1.41l1.71 1.71c-.19.39-.3.82-.3 1.29v.99999h-4v2h4v1c0 .45.05.89.15 1.31l-1.04.52c-.68.34-1.11 1.03-1.11 1.79v3.38h2v-3.38l.91-.46c1.06 1.7 2.94 2.84 5.09 2.84s4.03-1.14 5.09-2.84l.91.46v3.38h2v-3.38c0-.76-.42-1.45-1.11-1.79l-1.04-.52c.09-.42.15-.86.15-1.31zm-4-5.99999h-4c0-1.1.9-2 2-2s2 .9 2 2zm2 6.99999c0 2.21-1.79 4-4 4s-4-1.79-4-4v-3.99999c0-.55.45-1 1-1h6c.55 0 1 .45 1 1z" fill="currentColor"/></svg>