<svg viewBox="0 0 20 20" xmlns="http://www.w3.org/2000/svg"><path d="m17.99 4.27006-7-4.010001c-.61-.3500004-1.38-.3500004-1.99 0l-6.99 4.010001c-.62.36-1.01 1.02-1.01 1.74v7.99004c0 .72.39 1.38 1.01 1.74l7 4c.31.17.65.26.99.26s.69-.09.99-.26l7-4c.62-.36 1.01-1.02 1.01-1.74v-8.00004c0-.72-.39-1.38-1.01-1.74zm-7.99 4.67-2.11-1.21 6.07-3.47 2.11 1.21zm0-6.94 1.94 1.11-6.07 3.47-1.94-1.11zm-7 5.24 2 1.14v2.57004l2 1.14v-2.57004l2 1.14004v6.75l-6-3.43zm8 10.19004v-6.75l6-3.43004v6.75004z" fill="currentColor"/></svg>