<svg viewBox="0 0 20 20" xmlns="http://www.w3.org/2000/svg"><path d="m8 14v-2h-3c-.55 0-1-.45-1-1v-1h-2v-2h3c.55 0 1 .45 1 1v1h3c.55 0 1 .45 1 1v3zm12-13v4c0 .55-.45 1-1 1h-4c-.55 0-1-.45-1-1v-4c0-.55.45-1 1-1h4c.55 0 1 .45 1 1zm-2 1h-2v2h2zm-12 13v4c0 .55-.45 1-1 1h-4c-.55 0-1-.45-1-1v-4c0-.55.45-1 1-1h4c.55 0 1 .45 1 1zm-2 1h-2v2h2zm-4-11v-4c0-.55.45-1 1-1h4c.55 0 1 .45 1 1v4c0 .55-.45 1-1 1h-4c-.55 0-1-.45-1-1zm2-1h2v-2h-2zm16 8h2v-4h-2zm-2-3c0-.55-.45-1-1-1h-5v2h4v2h-1c-.55 0-1 .45-1 1v3h2v-2h1c.55 0 1-.45 1-1zm-4 8c0-.55-.45-1-1-1h-3v2h2v1c0 .55.45 1 1 1h3v-2h-2zm-1-11c.55 0 1-.45 1-1v-3h-2v2h-1c-.55 0-1 .45-1 1v3h2v-2zm7 10h-1c-.55 0-1 .45-1 1v3h2v-2h1c.55 0 1-.45 1-1v-3h-2z" fill="currentColor"/></svg>