<svg xmlns="http://www.w3.org/2000/svg" viewBox="0 0 20 20"><g clip-path="url(#a)"><mask id="b" width="20" height="20" x="0" y="0" maskUnits="userSpaceOnUse" style="mask-type:luminance"><path fill="#fff" d="M20 0H0v20h20z"/></mask><g mask="url(#b)"><path fill="currentColor" d="M9.105.329a2 2 0 0 1 1.79 0l6.364 3.182a2 2 0 0 1 1.003 1.157l1.636 4.906q.101.308.102.632v7.676a2 2 0 0 1-1.796 1.989l-.204.01H2a2 2 0 0 1-1.99-1.795L0 17.882v-7.676q0-.243.058-.478l.045-.154 1.635-4.906c.147-.44.441-.815.83-1.06l.173-.097zM2 17.882h5.857L2 12.757zm10.143 0H18v-5.125zM9 16.248v-4.366H4.01zm2 0 4.99-4.366H11zM3.636 5.3 2.108 9.882h15.784L16.364 5.3 10 2.118zM11 7.882H9v-2h2z"/></g></g><defs><clipPath id="a"><path fill="#fff" d="M0 0h20v20H0z"/></clipPath></defs></svg>