<svg viewBox="0 0 20 20" xmlns="http://www.w3.org/2000/svg"><path d="M16 0a2 2 0 0 1 2 2v2.676l.007.16c.013.16.045.319.095.472l.796 2.384c.067.204.102.417.102.632V18l-.01.204a2 2 0 0 1-1.786 1.785L17 20H3l-.204-.01a2 2 0 0 1-1.785-1.786L1 18V8.324a2 2 0 0 1 .058-.477l.045-.155.794-2.384a2 2 0 0 0 .096-.472L2 4.676V2a2 2 0 0 1 2-2h12ZM3 8.324V18h14V8.324L16.225 6H3.775L3 8.324Zm7 2.801c1.83 0 3 1.775 3 3 0 2-1.525 2-3 2s-3 0-3-2c0-1.225 1.17-3 3-3Zm-4-1.25c.55 0 1 .56 1 1.25s-.45 1.25-1 1.25-1-.56-1-1.25.45-1.25 1-1.25Zm8 0c.55 0 1 .56 1 1.25s-.45 1.25-1 1.25-1-.56-1-1.25.45-1.25 1-1.25Zm-5.5-2c.55 0 1 .56 1 1.25s-.45 1.25-1 1.25-1-.56-1-1.25.45-1.25 1-1.25Zm3 0c.55 0 1 .56 1 1.25s-.45 1.25-1 1.25-1-.56-1-1.25.45-1.25 1-1.25ZM4 4h12V2H4v2Z" fill="currentColor"/></svg>