<svg viewBox="0 0 20 20" xmlns="http://www.w3.org/2000/svg"><path d="m20.0098 4h-2.0821c-.4605-2.28-2.4825-4-4.9049-4-2.7628 0-5.00503 2.24-5.00503 5v3h-7.007c-.550554 0-1.00100438.45-1.00100438 1 0 4.82 3.80380438 8.75 8.56856438 8.98l1.73177 1.73c.1902.19.4404.29.7107.29h3.003v-2h-2.5926l-.2703-.27c3.934-.97 6.8569-4.51 6.8569-8.73v-3h1.982v-2zm-12.1622 6c-.41041 1.16-1.52152 2-2.83283 2s-2.42242-.84-2.83283-2zm8.1782-1c0 3.86-3.1432 7-7.00703 7-1.95195 0-3.72372-.81-4.99499-2.1.32032.06.65065.1.99099.1 2.76276 0 5.00503-2.24 5.00503-5v-4c0-1.65 1.3513-3 3.003-3 1.6516 0 3.003 1.35 3.003 3zm-2.002-4c0 .83-.4505 1.5-1.001 1.5-.5506 0-1.001-.67-1.001-1.5s.4504-1.5 1.001-1.5c.5505 0 1.001.67 1.001 1.5z" fill="currentColor"/></svg>