<svg viewBox="0 0 20 20" xmlns="http://www.w3.org/2000/svg"><g fill="currentColor"><path d="m18.475 13.8833h-6.1167c-.4044 0-.7923-.1606-1.0783-.4466s-.4467-.6739-.4467-1.0784c0-.4044.1607-.7923.4467-1.0783s.6739-.4467 1.0783-.4467h6.1167c.4045 0 .7924.1607 1.0783.4467.286.286.4467.6739.4467 1.0783 0 .4045-.1607.7924-.4467 1.0784-.2859.286-.6738.4466-1.0783.4466z"/><path d="m12.3583 9.16668c-.4044 0-.7923-.16067-1.0783-.44666s-.4467-.67388-.4467-1.07834v-6.11667c-.0155-.20918.0124-.41931.0818-.617255.0694-.197942.1789-.379438.3216-.53314s.3157-.2763049.5079-.360144c.1923-.0838391.3998-.127111.6096-.127111.2097 0 .4172.0432719.6095.127111s.3652.206442.5079.360144c.1428.153702.2523.335198.3217.53314.0694.197945.0972.408075.0817.617255v6.11667c0 .40302-.1595.78965-.4437 1.0754-.2842.28576-.67.4474-1.073.4496z"/><path d="m7.64167 9.16667h-6.11667c-.40446 0-.792345-.16067-1.078338-.44666-.285993-.286-.446662-.67389-.446662-1.07834 0-.40446.160669-.79235.446662-1.07834s.673878-.44666 1.078338-.44666h6.11667c.40445 0 .79234.16067 1.07833.44666.286.28599.44667.67388.44667 1.07834 0 .40445-.16067.79234-.44667 1.07834-.28599.28599-.67388.44666-1.07833.44666z"/><path d="m7.64165 20c-.40445 0-.79234-.1607-1.07833-.4467-.286-.286-.44667-.6739-.44667-1.0783v-6.1167c-.01549-.2092.01233-.4193.08174-.6172.06941-.198.1789-.3795.32164-.5332s.31565-.2763.50792-.3601c.19228-.0839.39978-.1271.60954-.1271s.41726.0432.60953.1271c.19228.0838.36519.2064.50793.3601.14273.1537.25223.3352.32163.5332.06941.1979.09724.408.08174.6172v6.1167c.00001.403-.15952.7896-.44371 1.0754s-.66995.4474-1.07296.4496z"/><path d="m1.85 14.5667c-.48921 0-.958506-.1938-1.30521-.5389-.346704-.3452-.54258635-.8136-.54479-1.3028 0-.5017.1993-.9828.554056-1.3376.354757-.3548.835914-.5541 1.337614-.5541h1.23333c.1621.0022.31682.0682.43067.1836s.17768.271.17766.4331v1.2333c0 .2474-.04871.4923-.14336.7208-.09464.2285-.23337.4361-.40825.611-.17489.1748-.3825.3136-.611.4082-.2285.0947-.4734.1434-.72072.1434z"/><path d="m8.55834 3.73332h-1.24167c-.49949 0-.97852-.19842-1.33172-.55161-.35319-.3532-.55161-.83223-.55161-1.33172-.00111-.24326.04599-.48432.13857-.70927s.22881-.42933.40082-.601339c.17201-.172008.37639-.308236.60134-.400817.22495-.0925802.46601-.13967879.70927-.13857558.50025.0022038.97927.20247658 1.33222.55699358.35296.354518.55112.834408.55111 1.334668v1.23334c0 .16134-.06409.31607-.17818.43016-.11408.11408-.26881.17817-.43015.17817z"/><path d="m12.7167 20c-.5003-.0022-.9793-.2025-1.3322-.557-.353-.3545-.5512-.8344-.5512-1.3347v-1.2333c0-.1613.0641-.3161.1782-.4302.1141-.114.2688-.1781.4302-.1781h1.2416c.4995 0 .9786.1984 1.3318.5516s.5516.8322.5516 1.3317c.0011.2433-.046.4843-.1386.7093-.0926.2249-.2288.4293-.4008.6013s-.3764.3082-.6014.4008c-.2249.0926-.466.1397-.7092.1386z"/><path d="m18.1083 9.16665h-1.2333c-.1621-.00219-.3168-.06812-.4307-.18354-.1138-.11541-.1777-.27101-.1776-.43312v-1.23334c0-.49949.1984-.97852.5516-1.33172.3532-.35319.8322-.55161 1.3317-.55161.4892-.00001.9585.19376 1.3052.5389s.5426.81356.5448 1.30277c0 .5017-.1993.98285-.5541 1.33761-.3547.35475-.8359.55405-1.3376.55405z"/></g></svg>