<svg viewBox="0 0 20 20" xmlns="http://www.w3.org/2000/svg"><path d="m12.0001 12.9901c0 .55-.45 1-1 1v1c0 .55-.45 1-1 1-.55003 0-1.00003-.45-1.00003-1v-1c-.55 0-1-.45-1-1s.45-1 1-1h2.00003c.55 0 1 .45 1 1zm-5.00003-5.49997c-.55 0-1 .67-1 1.5s.45 1.49997 1 1.49997 1-.66997 1-1.49997-.45-1.5-1-1.5zm6.00003 0c-.55 0-1 .67-1 1.5s.45 1.49997 1 1.49997 1-.66997 1-1.49997-.45-1.5-1-1.5zm6.98 4.49997c.04.89-.36 1.79-1.06 2.38l-5.71 4.89c-.54.47-1.24.72-1.95.72h-2.52003c-.72 0-1.41-.25-1.94-.71l-5.72-4.9c-.699995-.6-1.0999954-1.49-1.0599955-2.38.2000005-4.53997 1.6699955-9.01997 3.7599955-11.419967.3-.34.74-.5399995 1.2-.5499995.44.02.91.1899995 1.23.5299995.87.959997 1.61 2.129997 2.21 3.489997 1.16-.08 2.00003-.08 3.15003 0 .6-1.37 1.34-2.54 2.21-3.489997.31-.34.77-.5399995 1.23-.5299995.46 0 .9.2099995 1.2.5499995 2.09 2.399997 3.56 6.879997 3.76 11.419967zm-2 .09c-.17-3.83997-1.35-7.70997-2.99-9.84997-.72.87-1.35 1.98-1.83 3.23-.16.41-.58.67-1.02.64-1.7-.14-2.59003-.14-4.28003 0-.43.04-.86-.22-1.02-.64-.48-1.25-1.11-2.36-1.83-3.23-1.64 2.14-2.83 6.02-2.99 9.84997-.01.29.12.58.36.78l5.72 4.9c.18.15.4.23.64.23h2.52003c.24 0 .47-.09.65-.24l5.71-4.89c.24-.2.37-.49.36-.78z" fill="currentColor"/></svg>