<svg viewBox="0 0 20 20" xmlns="http://www.w3.org/2000/svg"><path d="m18 13.9999v-6.00001h1c.44 0 .83-.29.96-.71s-.04-.88-.4-1.12l-8.45-5.629997c-.67-.4500004-1.53998-.4500004-2.21998 0l-8.439997 5.629997c-.3699997.24-.5299996.7-.3999996 1.12.1299996.42.5199996.71.9599966.71h1v6.00001c-1.099997 0-1.9999966.9-1.9999966 2v2c0 1.1.8999996 2 1.9999966 2h15.98998c1.1 0 2-.9 2-2v-2c0-1.1-.9-2-2-2zm-8-11.80001 5.7 3.8h-11.39998zm6 5.8v6.00001h-2v-6.00001zm-4 0v6.00001h-3.99998v-6.00001zm-7.99998 0h2v6.00001h-2zm-2 10.00001v-2h15.99998v2z" fill="currentColor"/></svg>