<svg viewBox="0 0 20 20" xmlns="http://www.w3.org/2000/svg"><path d="m10 0c-3.57 0-9.44.48-9.95 3.57-.03.14-.05.28-.05.43v12c0 1.49 1.3 4 10 4 3.73 0 10-.52 10-4v-12c0-1.49-1.3-4-10-4zm8 16c0 1.1-3.58 2-8 2s-8-.9-8-2v-3.31c1.45.75 3.9 1.31 8 1.31 2.4 0 5.84-.22 8-1.3zm0-6c0 1.1-3.58 2-8 2s-8-.9-8-2v-3.31c1.45.75 3.9 1.31 8 1.31 2.4 0 5.84-.22 8-1.3zm-.36-5.41c-.39.31-1.08.59-1.98.82-.18.05-.37.09-.57.13-1.19.24-2.66.41-4.27.45-.27 0-.54.01-.82.01s-.55 0-.82-.01c-3.23-.08-5.89-.64-6.82-1.4-.23-.19-.36-.39-.36-.59s.13-.41.36-.59c.94-.75 3.6-1.31 6.82-1.4.27 0 .54-.01.82-.01s.55 0 .82.01c1.61.04 3.09.2 4.27.45.2.04.39.08.57.13.9.23 1.59.51 1.98.82.23.19.36.39.36.59s-.13.41-.36.59z" fill="currentColor"/></svg>