<svg viewBox="0 0 20 20" xmlns="http://www.w3.org/2000/svg"><path clip-rule="evenodd" d="m0 2c0-1.10457.895431-2 2-2h16c1.1046 0 2 .895431 2 2v10c0 1.1046-.8954 2-2 2h-5.5857l4.2689 4.2688c.3905.3906.3905 1.0237 0 1.4143-.3905.3905-1.0237.3905-1.4142 0l-4.269-4.269v3.5859c0 .5523-.4477 1-1 1-.55228 0-1-.4477-1-1v-3.6098l-4.29289 4.2929c-.39053.3905-1.02369.3905-1.41422 0-.39052-.3906-.39052-1.0237 0-1.4143l4.26885-4.2688h-5.56174c-1.104569 0-2-.8954-2-2zm2 0h16v10h-16z" fill="currentColor" fill-rule="evenodd"/></svg>