<svg viewBox="0 0 20 20" xmlns="http://www.w3.org/2000/svg"><path d="m4.15998 14.33c-1.31-.79-2.51-1.83-3.51-3.12-.5599995-.71-.5599995-1.70999 0-2.42999 2.34-3.01 5.71-4.75 9.25-4.78l-1.16 2.09c-2.49.35-4.81 1.73-6.51 3.91999.83 1.06 1.82 1.92 2.9 2.58zm15.19002-5.54999c-1-1.29-2.2-2.33-3.51-3.12l-.97 1.74c1.08.66 2.07 1.52 2.9 2.58-1.7 2.17999-4.02 3.55999-6.51 3.91999l-1.16 2.09c3.54-.03 6.91-1.77 9.25-4.78.56-.71.56-1.70999 0-2.42999zm-4.35-7.78-.87-.49-10.00002 17.99999.87.49.87.49 10.00002-17.99999z" fill="currentColor"/></svg>