<svg viewBox="0 0 20 20" xmlns="http://www.w3.org/2000/svg"><g fill="currentColor"><path d="M10 0C4.48 0 0 4.48 0 10s4.48 10 10 10 10-4.48 10-10S15.52 0 10 0zm0 18c-4.41 0-8-3.59-8-8s3.59-8 8-8 8 3.59 8 8-3.59 8-8 8z"/><path d="M10 4c-2.21 0-4 1.79-4 4h2c0-1.1.9-2 2-2s2 .9 2 2c0 .69-.31 1.07-.93 1.55l-.27.21C9.67 10.42 9 11.18 9 12.5V13h2v-.5c0-.5.21-.7.74-1.1l.27-.21C12.94 10.65 14 9.85 14 8c0-2.21-1.79-4-4-4z"/><path d="M11.1502 15c0 .64-.51 1.15-1.15 1.15-.63998 0-1.14998-.51-1.14998-1.15s.51-1.15 1.14998-1.15c.64 0 1.15.51 1.15 1.15z"/></g></svg>
