<svg viewBox="0 0 20 20" xmlns="http://www.w3.org/2000/svg"><path d="m18.2798 2.73c-1.11-1.12-2.58-1.73-4.15-1.73s-3.02.61-4.13003 1.71c-1.11-1.1-2.57-1.71-4.13-1.71s-3.04.61-4.15 1.73c-2.280004 2.3-2.280004 6.04 0 8.34l7.57 7.63c.19.19.44.3.71.3.27003 0 .52003-.11.71003-.3l7.57-7.63c2.28-2.3 2.28-6.04 0-8.34zm-1.42 6.94-6.86003 6.91-6.86-6.91c-1.51-1.52-1.51-4 0-5.53.73-.74 1.7-1.14 2.73-1.14s2 .41 2.73 1.14l.69.69c.38.38 1.04003.38 1.42003 0l.69-.69c1.46-1.47 4.01-1.47 5.47 0 1.51 1.52 1.51 4 0 5.53z" fill="currentColor"/></svg>