<svg viewBox="0 0 20 20" xmlns="http://www.w3.org/2000/svg"><path d="m6.71 14.71-1.41-1.41 7.99-8.01 1.41 1.41zm2.2 1.28c-1.31 1.31-3.59 1.31-4.9 0-.65-.65-1.01-1.52-1.01-2.45s.36-1.79 1.01-2.45l2.28-2.28-1.41-1.41-2.28 2.28c-1.03 1.03-1.6 2.4-1.6 3.86s.57 2.83 1.6 3.86 2.4 1.6 3.86 1.6 2.83-.57 3.86-1.6l2.28-2.28-1.41-1.41zm8.49-13.39c-1.03-1.03-2.4-1.6-3.86-1.6s-2.83.57-3.86 1.6l-2.28 2.28 1.41 1.41 2.28-2.28c1.31-1.31 3.59-1.31 4.9 0 .65.65 1.01 1.52 1.01 2.45s-.36 1.79-1.01 2.45l-2.28 2.28 1.41 1.41 2.28-2.28c1.03-1.03 1.6-2.4 1.6-3.86s-.57-2.83-1.6-3.86z" fill="currentColor"/></svg>