<svg viewBox="0 0 20 20" xmlns="http://www.w3.org/2000/svg"><path d="m11.1502 13c0 .64-.51 1.15-1.15 1.15-.63998 0-1.14998-.51-1.14998-1.15s.51-1.15 1.14998-1.15c.64 0 1.15.51 1.15 1.15zm-2.14998-2h1.99998v-5h-1.99998zm10.51998 6.01c-.36.62-1.01.99-1.73.99h-15.58998c-.72 0-1.360004-.37-1.730004-.99-.36-.62-.37-1.36-.02-1.99l7.800004-13.95c.36-.629997 1.03-1.0199969 1.74998-1.0199969.72 0 1.39.3899999 1.75 1.0199969l7.8 13.95c.35.63.34 1.37-.02 1.99zm-1.72-1.01-7.8-13.95-7.79998 13.95z" fill="currentColor"/></svg>