<svg viewBox="0 0 20 20" xmlns="http://www.w3.org/2000/svg"><path d="m17.1597 6.19488h-3.86l-1.19-3.67c-.3-.91-1.14-1.52-2.09-1.52-.95003 0-1.80003.61-2.09003 1.52l-1.19 3.67h-3.88c-1.08 0-2.200002.86-2.200002 2.21 0 .38.06 1.11.910002 1.77002l3.12 2.27-1.19 3.67c-.1.24-.11.59-.11.7 0 1.35 1.17 2.18 2.2 2.18.47 0 .91-.15 1.29-.42l3.12-2.27 3.12003 2.27c.38.28.83.42 1.29.42.91 0 2.2-.61 2.2-2.21 0-.23-.04-.45-.11-.67l-1.19-3.67 3.12-2.27c.6-.43002.91-1.12002.91-1.83002 0-1.15-.98-2.15-2.2-2.15zm.12 2.36-3.71 2.70002c-.27.2-.41.51-.41.84 0 .09.02.19.05.28l1.42 4.36s.01.04.01.06c0 .11-.09.2-.2.2-.04 0-.08-.01-.12-.04l-3.71-2.7c-.18-.13-.38-.19-.59-.19-.21003 0-.41003.06-.59003.19l-3.71 2.7s-.08.04-.12.04c-.11 0-.2-.08-.2-.2 0-.02 0-.04.01-.06l1.42-4.36c.03-.1.05-.19.05-.29 0-.32-.14-.63-.41-.83l-3.71-2.70002c-.16-.11-.08-.36.12-.36h4.57c.43 0 .82-.28.95-.69l1.42-4.36c.03-.09.11-.14.19003-.14.08 0 .16.05.19.14l1.42 4.36c.13.41.52.69.95.69h4.59c.19 0 .27.25.12.36z" fill="currentColor"/></svg>