<svg viewBox="0 0 20 20" xmlns="http://www.w3.org/2000/svg"><g fill="currentColor"><path d="m3 8.99992h-2c0-3.19 1.67-5.98 4.17-7.58l1.07 1.69c-1.95 1.24-3.25 3.42-3.25 5.9z"/><path d="m14.83 1.41992-1.07 1.69c1.95 1.24 3.25 3.42 3.25 5.9h2c0-3.19-1.67-5.98-4.17-7.58z"/><path clip-rule="evenodd" d="m15.42 12.5899c.57.57.74 1.43.43 2.18s-1.04 1.23-1.85 1.23h-2.5c0 .83-.67 1.5-1.5 1.5s-1.5-.67-1.5-1.5h-2.5c-.81 0-1.54-.49-1.85-1.23-.31-.75-.14-1.61.43-2.18l.41-.41v-3.16998c0-1.77.93-3.32 2.32-4.21.78-.5 1.69-.79 2.68-.79s1.9.3 2.68.79c1.39.89 2.32 2.44 2.32 4.21v3.16998zm-1.42 1.41-.4-.41c-.38-.38-.59-.88-.59-1.41v-3.16998c0-1.06-.56-1.99-1.39-2.53-.47-.3-1.01-.47-1.61-.47s-1.14.18-1.61.47c-.84.53-1.39 1.46-1.39 2.53v3.16998c0 .53-.21 1.04-.59 1.41l-.41.41z" fill-rule="evenodd"/></g></svg>