<svg viewBox="0 0 20 20" xmlns="http://www.w3.org/2000/svg"><path d="m15 0h-3c-1.39 0-3.03.75-4.35 1.34-.59.27-1.41.64-1.65.66h-.28c-.35-.59-.98-1-1.72-1h-2c-1.1 0-2 .9-2 2v8c0 1.1.9 2 2 2h2c.74 0 1.38-.41 1.72-1h.26c.41.07 2.02 1.46 2.02 4v1c0 1.65 1.35 3 3 3s3-1.35 3-3v-3h2c1.38 0 4-1.25 4-6 0-4.41-2.24-8-5-8zm-11 11h-2v-8h2zm12 1h-3c-.55 0-1 .45-1 1v4c0 .55-.45 1-1 1s-1-.45-1-1v-1c0-3.48-2.39-6-4-6v-6c.6 0 1.3-.3 2.47-.83 1.15-.52 2.57-1.17 3.53-1.17h3c1.22 0 3 2.34 3 6 0 3.28-1.44 4-2 4z" fill="currentColor"/></svg>