<svg viewBox="0 0 20 20" xmlns="http://www.w3.org/2000/svg"><path d="m10 1c-4.41 0-8 3.59-8 8v2c0 4.41 3.59 8 8 8 .85 0 1.7-.14 2.53-.41l-.63-1.9c-.62.21-1.26.31-1.9.31-3.31 0-6-2.69-6-6v-2c0-3.31 2.69-6 6-6s6 2.69 6 6v4c0 .55-.45 1-1 1s-1-.45-1-1v-7h-1.38c-.7-.61-1.61-1-2.62-1-2.21 0-4 1.79-4 4v2c0 2.21 1.79 4 4 4 .85 0 1.64-.27 2.29-.73.48 1.02 1.51 1.73 2.71 1.73 1.65 0 3-1.35 3-3v-4c0-4.41-3.59-8-8-8zm0 12c-1.1 0-2-.9-2-2v-2c0-1.1.9-2 2-2s2 .9 2 2v2c0 1.1-.9 2-2 2z" fill="currentColor"/></svg>