<svg viewBox="0 0 20 20" xmlns="http://www.w3.org/2000/svg"><g fill="currentColor"><path d="m5.98833 7.9999h8.03337c.5088 0 .9774-.28117 1.1916-.73639.2142-.45523.1741-.99078-.1205-1.40584l-4.0167-5.355584c-.5087-.669448-1.63342-.669448-2.1422 0l-4.01669 5.355584c-.30794.40167-.34811.95061-.1205 1.40584.22762.45522.69623.73639 1.19162.73639z"/><path d="m5.98833 12.0001h8.03337c.5088 0 .9774.2812 1.1916.7364s.1741.9908-.1205 1.4058l-4.0167 5.3556c-.5087.6695-1.63342.6695-2.1422 0l-4.01669-5.3556c-.30794-.4016-.34811-.9506-.1205-1.4058.22762-.4552.69623-.7364 1.19162-.7364z"/></g></svg>