<svg viewBox="0 0 20 20" xmlns="http://www.w3.org/2000/svg"><path d="m2.78994 4.20994 1.41-1.41 12.99996 12.99996-1.41 1.41zm-.19 13.18996c2.13 2.13 5.59 2.13 7.71996 0l1.28-1.28-1.41-1.41-1.27996 1.28c-1.35 1.35-3.55 1.35-4.9 0s-1.35-3.55 0-4.9l1.28-1.27996-1.41-1.41-1.28 1.28c-2.129999 2.12996-2.129999 5.58996 0 7.71996zm7.08-14.79996-1.28 1.28 1.41 1.41 1.27996-1.28c1.35-1.35 3.55-1.35 4.9 0s1.35 3.55 0 4.9l-1.28 1.27996 1.41 1.41 1.28-1.28c2.13-2.12996 2.13-5.58996 0-7.71996-2.13-2.129999-5.6-2.129999-7.71996 0z" fill="currentColor"/></svg>