<svg viewBox="0 0 20 20" xmlns="http://www.w3.org/2000/svg"><path d="m17.9989 4.00189v3.82l-5.1028-4.4c-.5303-.45-1.2507-.55-1.8811-.26-.6303.29-1.0106.89-1.0106 1.58v3.08l-5.11279-4.4c-.5303-.45-1.2507-.55-1.88105-.26s-1.01056.89-1.01056 1.58v10.52001c0 .68.39022 1.29 1.01056 1.58.24013.11.49027.16.74041.16.41023 0 .81045-.15 1.14064-.43l5.10283-4.39v3.08c0 .69.39026 1.29 1.02056 1.58.2401.11.4903.16.7404.16.4102 0 .8105-.15 1.1407-.43l5.1028-4.39v3.82h2.0011v-12.00001zm-14.00779 10.71001v-9.42001l5.47304 4.71001zm8.00449 0v-9.42001l5.473 4.71001-5.473 4.7z" fill="currentColor"/></svg>