<svg viewBox="0 0 20 20" xmlns="http://www.w3.org/2000/svg"><path d="m19.41 4.12016-8.59-3.850004c-.52-.2299998-1.12-.2299998-1.64 0l-8.59 3.850004c-.36.16-.59.52-.59.92s.23.75.6.91l8.6 3.79c.26.11.53.17.81.17s.55-.06.81-.17l8.6-3.79c.36-.16.6-.52.6-.91 0-.4-.23-.75-.59-.92zm-9.41 3.79-6.54-2.89 6.54-2.93 6.54 2.93-6.54 2.88zm8.6 1.21.81 1.83004-8.6 3.79c-.26.11-.53.17-.81.17s-.55-.06-.81-.17l-8.59-3.79.81-1.83004 8.6 3.79004 8.6-3.79004zm0 5.00004.81 1.83-8.6 3.79c-.26.11-.53.17-.81.17s-.55-.06-.81-.17l-8.59-3.79.81-1.83 8.6 3.79 8.6-3.79z" fill="currentColor"/></svg>