<svg viewBox="0 0 20 20" xmlns="http://www.w3.org/2000/svg"><path d="m16 6h-2v-3c0-1.65-1.35-3-3-3s-3 1.35-3 3v1c0 2.54-1.61 3.94-2 4h-.28c-.35-.59-.98-1-1.72-1h-2c-1.1 0-2 .9-2 2v8c0 1.1.9 2 2 2h2c.74 0 1.38-.41 1.72-1h.27c.25.02 1.06.39 1.66.66 1.32.6 2.97 1.34 4.35 1.34h3c2.76 0 5-3.59 5-8 0-4.75-2.62-6-4-6zm-12 11h-2v-8h2m11 9h-3c-.96 0-2.38-.65-3.53-1.17-1.18-.53-1.87-.83-2.47-.83v-6c1.61 0 4-2.52 4-6v-1c0-.55.45-1 1-1s1 .45 1 1v4c0 .55.45 1 1 1h3c.56 0 2 .72 2 4 0 3.66-1.78 6-3 6z" fill="currentColor"/></svg>