<svg viewBox="0 0 20 20" xmlns="http://www.w3.org/2000/svg"><path fill-rule="evenodd" clip-rule="evenodd" d="M1.8 2.01L1.23 2.15L0.89 2.34L0.59 2.59L0.24 3.06L0.09 3.42L0.01 3.8L0.01 16.2L0.09 16.58L0.24 16.94L0.45 17.27L0.73 17.55L1.06 17.76L1.42 17.91L2 18L18 18L18.58 17.91L18.94 17.76L19.27 17.55L19.55 17.27L19.76 16.94L19.91 16.58L20 16L20 4L19.91 3.42L19.76 3.06L19.55 2.73L19.27 2.45L18.77 2.15L18.39 2.04L18 2ZM18.04 3.81L18.16 3.89L18.2 4.04L18.2 9.7L12.8 9.7L12.46 9.77L12.17 9.96L11.97 10.24L11.24 12.5L8.76 12.5L8.03 10.24L7.76 9.9L7.46 9.74L7.2 9.7L1.8 9.7L1.8 4.04L1.83 3.91L1.92 3.82ZM18.2 15.96L18.14 16.14L17.96 16.2L1.94 16.19L1.84 16.11L1.8 15.96L1.8 11.5L6.54 11.5L7.31 13.84L7.61 14.15L7.84 14.26L8.1 14.3L11.9 14.3L12.32 14.2L12.59 13.98L12.73 13.76L13.46 11.5L18.2 11.5Z" fill="currentColor"/></svg>
