<svg viewBox="0 0 20 20" xmlns="http://www.w3.org/2000/svg"><path d="m10 0c-5.52 0-10 4.48-10 10s4.48 10 10 10 10-4.48 10-10-4.48-10-10-10zm6.92 6h-2.28c-.22-1.14-.53-2.19-.95-3.09 1.35.7 2.47 1.78 3.23 3.09zm1.08 4c0 .69-.1 1.36-.26 2h-2.82c.06-.66.09-1.33.09-2s-.03-1.34-.09-2h2.82c.17.64.26 1.31.26 2zm-8 8c-1.11 0-2.08-1.61-2.6-4h5.19c-.52 2.39-1.49 4-2.6 4zm-2.9-6c-.06-.64-.1-1.31-.1-2s.04-1.36.1-2h5.8c.06.64.1 1.31.1 2s-.04 1.36-.1 2zm-5.1-2c0-.69.1-1.36.26-2h2.82c-.06.66-.09 1.33-.09 2s.03 1.34.09 2h-2.82c-.17-.64-.26-1.31-.26-2zm8-8c1.11 0 2.08 1.61 2.6 4h-5.2c.52-2.39 1.49-4 2.6-4zm-3.69.91c-.42.9-.74 1.95-.95 3.09h-2.28c.76-1.31 1.88-2.39 3.23-3.09zm-3.23 11.09h2.28c.22 1.14.53 2.19.95 3.09-1.35-.7-2.47-1.78-3.23-3.09zm10.6 3.09c.42-.9.74-1.95.95-3.09h2.28c-.76 1.31-1.88 2.39-3.23 3.09z" fill="currentColor"/></svg>