<svg viewBox="0 0 20 20" xmlns="http://www.w3.org/2000/svg"><path fill-rule="evenodd" clip-rule="evenodd" d="M2 0C0.895508 0 0 0.895508 0 2V18C0 19.1045 0.895508 20 2 20H18C19.1045 20 20 19.1045 20 18V2C20 0.895508 19.1045 0 18 0H2ZM10 4.5C8.06982 4.5 6.5 6.06982 6.5 8H8.5C8.5 7.16992 9.16992 6.5 10 6.5C10.8301 6.5 11.5 7.16992 11.5 8C11.5 8.83008 10.8301 9.5 10 9.5C9.4502 9.5 9 9.9502 9 10.5V12H11V11.3501C12.4399 10.9199 13.5 9.58008 13.5 8C13.5 6.06982 11.9302 4.5 10 4.5ZM11.1499 15C11.1499 15.6401 10.6401 16.1499 10 16.1499C9.35986 16.1499 8.8501 15.6401 8.8501 15C8.8501 14.3599 9.35986 13.8501 10 13.8501C10.6401 13.8501 11.1499 14.3599 11.1499 15Z" fill="currentColor"/></svg>
