<svg viewBox="0 0 20 20" xmlns="http://www.w3.org/2000/svg"><g fill="currentColor"><path d="m5 10c0 1.3807-1.11929 2.5-2.5 2.5s-2.5-1.1193-2.5-2.5c0-1.38071 1.11929-2.5 2.5-2.5s2.5 1.11929 2.5 2.5z"/><path d="m12.5 10c0 1.3807-1.1193 2.5-2.5 2.5-1.38071 0-2.5-1.1193-2.5-2.5 0-1.38071 1.11929-2.5 2.5-2.5 1.3807 0 2.5 1.11929 2.5 2.5z"/><path d="m17.5 12.5c1.3807 0 2.5-1.1193 2.5-2.5 0-1.38071-1.1193-2.5-2.5-2.5s-2.5 1.11929-2.5 2.5c0 1.3807 1.1193 2.5 2.5 2.5z"/><path d="m5 10c0 1.3807-1.11929 2.5-2.5 2.5s-2.5-1.1193-2.5-2.5c0-1.38071 1.11929-2.5 2.5-2.5s2.5 1.11929 2.5 2.5z"/><path d="m12.5 10c0 1.3807-1.1193 2.5-2.5 2.5-1.38071 0-2.5-1.1193-2.5-2.5 0-1.38071 1.11929-2.5 2.5-2.5 1.3807 0 2.5 1.11929 2.5 2.5z"/><path d="m17.5 12.5c1.3807 0 2.5-1.1193 2.5-2.5 0-1.38071-1.1193-2.5-2.5-2.5s-2.5 1.11929-2.5 2.5c0 1.3807 1.1193 2.5 2.5 2.5z"/></g></svg>