<svg viewBox="0 0 20 20" xmlns="http://www.w3.org/2000/svg"><path d="m12.5096 14.5277 1.5681 1.5707-1.1486 3.2413c-.1299.3702-.4594.6303-.849.6603-.0299 0-.0599 0-.0899 0-.3595 0-.6891-.1901-.8689-.5002l-3.85522-6.7628-6.761644-3.8616c-.33958-.19007-.5393335-.57023-.49938281-.96039.03995061-.39016.28964181-.7203.65918581-.85035l3.236001-1.15048 1.56806 1.57065-2.08742.74031 5.09371 2.92116c.1598.0901.27966.2201.36954.3702l2.91637 5.1021.7391-2.0909zm6.1824-13.23543c-.2697-.27011-.6792-.360147-1.0387-.2401l-7.83037 2.77115 1.56807 1.57065 4.9639-1.75073-1.7479 4.97206 1.5681 1.5706 2.7666-7.84319c.1298-.36015.0399-.77032-.2397-1.04043zm-15.40101 1.42059 13.98271 14.00574 1.4083-1.4105-13.97276-14.01583-1.40826 1.41058z" fill="currentColor"/></svg>