<svg viewBox="0 0 20 20" xmlns="http://www.w3.org/2000/svg"><g transform="translate(0 -0.53)"><path d="M13.33 3.81L14.5 4.64L15.36 5.5L15.94 6.29L16.49 7.38L16.79 8.31L16.96 9.27L17 10.24L16.85 11.46L16.58 12.39L16.06 13.5L15.52 14.31L14.68 15.2L13.71 15.94L12.85 16.39L11.69 16.79L10.73 16.96L9.51 16.98L8.31 16.79L7.15 16.39L6.09 15.8L5.14 15.04L4.34 14.11L3.71 13.07L3.27 11.93L3.04 10.73L3 9.76L3.11 8.78L3.42 7.61L3.94 6.5L4.64 5.5L5.5 4.64L6.6 3.87L6.86 3.58L6.97 3.31L7 3.02L6.94 2.73L6.8 2.48L6.43 2.17L6.05 2.07L5.66 2.13L5.25 2.36L4.47 2.9L3.74 3.54L2.92 4.45L2.36 5.25L1.9 6.07L1.55 6.91L1.13 8.45L1.02 9.35L1.01 10.3L1.09 11.24L1.26 12.16L1.79 13.68L2.2 14.48L2.71 15.28L3.3 16.01L3.96 16.68L5.25 17.64L6.04 18.08L6.91 18.45L8.45 18.87L9.39 18.98L10.33 18.99L11.24 18.91L12.16 18.74L13.06 18.46L13.93 18.1L15.3 17.27L16.01 16.7L16.68 16.04L17.64 14.75L18.21 13.68L18.55 12.8L18.8 11.89L18.95 10.92L18.99 9.7L18.91 8.76L18.73 7.81L18.45 6.91L17.79 5.48L17.27 4.7L16.7 3.99L15.53 2.9L14.75 2.36L14.24 2.1L13.85 2.08L13.49 2.21L13.2 2.48L13.03 2.83L13.01 3.22L13.14 3.58Z" fill="currentColor"/></g></svg>
