<svg viewBox="0 0 20 20" xmlns="http://www.w3.org/2000/svg"><path d="m18.0698 9.97023-7.07 7.06997c-1.13003 1.13-2.64003 1.76-4.24003 1.76s-3.11-.62-4.24-1.76-1.760004-2.64-1.760004-4.24.620004-3.10996 1.760004-4.23996l7.07-7.07001 1.41003 1.41-7.07003 7.07c-.76.75997-1.17 1.75997-1.17 2.82997s.42 2.07 1.17 2.83c1.51 1.51 4.15 1.51 5.66 0l7.07003-7.06996c.78-.78.78-2.05001 0-2.83001s-2.05-.78-2.83 0l-6.36003 6.35997 1.21999 1.22-1.40999 1.41-1.22-1.22c-.78-.78-.78-2.05 0-2.83l6.36003-6.35997c1.56-1.56 4.1-1.56 5.66 0s1.56 4.1 0 5.66z" fill="currentColor"/></svg>