<svg viewBox="0 0 20 20" xmlns="http://www.w3.org/2000/svg"><path d="m2 18h4v2h-4c-1.1 0-2-.9-2-2v-4h2zm16 0h-4v2h4c1.1 0 2-.9 2-2v-4h-2zm0-18h-4v2h4v4h2v-4c0-1.1-.9-2-2-2zm-16 2h4v-2h-4c-1.1 0-2 .9-2 2v4h2zm8 10.64c-1.97 0-3.82.77-5.21 2.16l1.41 1.41c2.09-2.09 5.49-2.09 7.59 0l1.41-1.41c-1.39-1.39-3.24-2.16-5.21-2.16zm-4.5-5.64c0-2.48 2.02-4.5 4.5-4.5s4.5 2.02 4.5 4.5-2.02 4.5-4.5 4.5-4.5-2.02-4.5-4.5zm2 0c0 1.38 1.12 2.5 2.5 2.5s2.5-1.12 2.5-2.5-1.12-2.5-2.5-2.5-2.5 1.12-2.5 2.5z" fill="currentColor"/></svg>