<svg viewBox="0 0 20 20" xmlns="http://www.w3.org/2000/svg"><path d="m10.0001 3.99312c-3.30833 0-5.99699 2.68865-5.99699 5.997 0 3.30838 2.68866 5.99698 5.99699 5.99698 3.3084 0 5.997-2.6886 5.997-5.99698 0-3.30835-2.6886-5.997-5.997-5.997zm0 9.99498c-2.20888 0-3.99799-1.7891-3.99799-3.99798 0-2.2089 1.78911-3.998 3.99799-3.998 2.2089 0 3.998 1.7891 3.998 3.998 0 2.20888-1.7891 3.99798-3.998 3.99798zm-1.1794-12.81357c0-.649678.52974-1.17941281 1.1794-1.17941281.6497 0 1.1794.52973481 1.1794 1.17941281 0 .64967-.5297 1.17941-1.1794 1.17941-.64966 0-1.1794-.52974-1.1794-1.17941zm2.3488 17.64117c0 .6497-.5297 1.1794-1.17938 1.1794s-1.17941-.5297-1.17941-1.1794.52973-1.1794 1.17941-1.1794 1.17938.5297 1.17938 1.1794zm-8.81556-8.82558c0 .64968-.52974 1.17938-1.17941 1.17938-.649678 0-1.17941281-.5297-1.17941281-1.17938s.52973481-1.17941 1.17941281-1.17941c.64967 0 1.17941.52973 1.17941 1.17941zm17.64116 0c0 .64968-.5297 1.17938-1.1794 1.17938s-1.1794-.5297-1.1794-1.17938.5297-1.17941 1.1794-1.17941 1.1794.52973 1.1794 1.17941zm-17.41128-6.23688c0-.64968.52974-1.17941 1.17941-1.17941.64968 0 1.17941.52973 1.17941 1.17941 0 .64967-.52973 1.17941-1.17941 1.17941-.64967 0-1.17941-.52974-1.17941-1.17941zm14.82258 12.47376c0 .6497-.5297 1.1794-1.1794 1.1794s-1.1794-.5297-1.1794-1.1794.5297-1.1794 1.1794-1.1794 1.1794.5297 1.1794 1.1794zm-1.1794-13.64318c.6497 0 1.1794.52974 1.1794 1.17941 0 .64968-.5297 1.17941-1.1794 1.17941s-1.1794-.52973-1.1794-1.17941c0-.64967.5297-1.17941 1.1794-1.17941zm-11.28436 13.64318c0 .6497-.52973 1.1794-1.17941 1.1794-.64967 0-1.17941-.5297-1.17941-1.1794s.52974-1.1794 1.17941-1.1794c.64968 0 1.17941.5297 1.17941 1.1794z" fill="currentColor"/></svg>