<svg viewBox="0 0 20 20" xmlns="http://www.w3.org/2000/svg"><path d="m10.9385 1.00222c-.43-.039999-.82.18-1.01.56-.18.38-.1.84.19 1.14.99.99 1.53 2.31 1.53 3.7 0 2.89-2.35 5.23998-5.24 5.23998-1.4 0-2.71-.54-3.7-1.53-.3-.29998-.75-.37998-1.14-.18998-.38.17998-.609999.58998-.56 1.00998.48 4.6 4.34 8.07 8.97 8.07 4.98 0 9.02-4.05 9.02-9.01998 0-4.63-3.47-8.49-8.07-8.97zm-.95 15.98998c-2.74 0-5.13-1.56-6.28-3.87.85.34 1.77.53 2.72.53 3.99 0 7.24-3.25 7.24-7.23998 0-.95-.18-1.87-.53-2.72 2.32 1.16 3.87 3.55 3.87 6.28 0 3.86998-3.15 7.01998-7.02 7.01998z" fill="currentColor"/></svg>