<svg viewBox="0 0 20 20" xmlns="http://www.w3.org/2000/svg"><path d="m19.35 8.8241c-2.36-3.03747-5.77-4.78601-9.35002-4.78601-3.58 0-6.99 1.73855-9.35 4.78601-.5599995.70941-.5599995 1.7086 0 2.428 2.36 3.0374 5.77 4.786 9.35 4.786 3.58002 0 6.99002-1.7386 9.35002-4.786.56-.7094.56-1.7086 0-2.428zm-11.40002 1.209c0-1.12907.92-2.0483 2.05-2.0483 1.13002 0 2.05002.91923 2.05002 2.0483 0 1.129-.92 2.0483-2.05002 2.0483-1.13 0-2.05-.9193-2.05-2.0483zm-5.72.01c1.78-2.28811 4.26-3.69694 6.89-3.95672-1.81.40966-3.16 2.01832-3.16 3.94672s1.36 3.537 3.16 3.9467c-2.63-.2598-5.1-1.6586-6.89-3.9267zm8.66002 3.9267c1.81-.4097 3.16-2.0183 3.16-3.9467 0-1.92839-1.36-3.53705-3.16-3.94671 2.63.25978 5.1 1.65862 6.89 3.92671-1.78 2.2881-4.26 3.6969-6.89 3.9567z" fill="currentColor"/></svg>