<svg viewBox="0 0 20 20" xmlns="http://www.w3.org/2000/svg"><path fill-rule="evenodd" clip-rule="evenodd" d="M16 6V4H14V2L16 2V0H18V2L20 2V4H18V6H16ZM9 2C9 5.86599 12.134 9 16 9V11C12.134 11 9 14.134 9 18H7C7 14.134 3.86599 11 0 11V9C3.86599 9 7 5.86599 7 2H9ZM8 6.1272C7.14284 7.78532 5.78532 9.14284 4.1272 10C5.78532 10.8572 7.14284 12.2147 8 13.8728C8.85716 12.2147 10.2147 10.8572 11.8728 10C10.2147 9.14284 8.85716 7.78532 8 6.1272ZM16 18V20H18V18H20V16H18V14H16V16L14 16V18H16Z" fill="currentColor"/></svg>
