<svg viewBox="0 0 20 20" xmlns="http://www.w3.org/2000/svg"><path d="m18.7115 1.30008c-.2702-.27011-.6803-.360145-1.0405-.2401l-17.007613 6.01249c-.370165.13005-.6302815.46019-.66029488.85035-.03001342.39016.16007188.76031.50022388.9604l6.763024 3.86158 3.86176 6.7628c.18.3101.5102.5002.8704.5002h.09c.3902-.04.7203-.2901.8504-.6603l6.0027-17.00699c.13-.36015.04-.77031-.2401-1.04043zm-6.9231 15.31632-2.92134-5.1021c-.09004-.1601-.2201-.2801-.37017-.3701l-5.10228-2.92126 12.96579-4.57188-4.582 12.97534z" fill="currentColor"/></svg>