<svg viewBox="0 0 20 20" xmlns="http://www.w3.org/2000/svg"><path d="m3.99002 8v4c0 1.37.45 2.66 1.31 3.73l-1.56 1.25c-1.14-1.43-1.74-3.15-1.74-4.98v-4c-.01-4.41 3.58-8 7.99-8 1.24998 0 2.44998.29 3.57998.85l-.9 1.79c-.85-.42-1.75-.64-2.67998-.64-3.31 0-6 2.69-6 6zm12.25998-4.98-1.56 1.25c.85 1.07 1.31 2.36 1.31 3.73v4c0 3.31-2.69 6-6 6-.92998 0-1.83998-.22-2.67998-.64l-.9 1.79c1.13.57 2.33.85 3.57998.85 4.41 0 8-3.59 8-8v-4c0-1.82-.6-3.54-1.74-4.98zm-7.03998 12.9c.26.05.52.07.78.07.92998 0 1.82998-.32 2.54998-.91.92-.76 1.45-1.89 1.45-3.08v-1c0-1.65-1.35-3-3-3h-.99998v2h.99998c.55 0 1 .45 1 1v1c0 .6-.27 1.16-.73 1.54-.47.39-1.06.54-1.67998.42-.91-.17-1.59-1.06-1.59-2.07v-3.7c0-.61.26-1.21.71-1.64.39-.37.89-.57 1.37998-.54.58.03.99.3 1.24.52l1.34-1.49c-.69-.62-1.57-.99-2.48-1.03-1.03998-.05-2.06998.34-2.85998 1.09-.85.81-1.33 1.93-1.33 3.09v3.7c0 1.98 1.35 3.68 3.22 4.04z" fill="currentColor"/></svg>