<svg viewBox="0 0 20 20" xmlns="http://www.w3.org/2000/svg"><path d="m9 2h-.73c-.24 0-.48.09-.66.25l-4.26 3.75h-1.35c-1.1 0-2 .9-2 2v4c0 1.1.9 2 2 2h1.35l4.26 3.75c.18.16.42.25.66.25h.73c.55 0 1-.45 1-1v-14c0-.55-.45-1-1-1zm-1 13.43-3.33-2.93c-.37-.32-.83-.5-1.32-.5h-1.35v-4h1.35c.49 0 .96-.18 1.32-.5l3.33-2.93zm5.54-1.89-1.41-1.41c1.17-1.17 1.17-3.07 0-4.24l1.41-1.41c1.95 1.95 1.95 5.12 0 7.07zm5.46-3.54c0 2.4-.94 4.66-2.64 6.36l-1.41-1.41c1.32-1.32 2.05-3.08 2.05-4.95s-.73-3.63-2.05-4.95l1.41-1.41c1.7 1.7 2.64 3.96 2.64 6.36z" fill="currentColor"/></svg>