<svg viewBox="0 0 20 20" xmlns="http://www.w3.org/2000/svg"><path d="m16.9994 3.15994c-.6303-.29-1.3507-.19-1.881.26l-5.1028 4.39v-3.08c0-.68-.39025-1.29-1.0106-1.57-.63035-.29-1.35075-.19-1.88104.26l-5.12285 4.4v-3.82h-2.00111v11.99996h2.00111v-3.82l5.10284 4.39c.33018.28.7304.43 1.14063.43.25014 0 .50028-.05.74041-.16.63035-.29 1.02061-.89 1.02061-1.58v-3.08l5.1028 4.39c.3302.28.7304.43 1.1406.43.2502 0 .5003-.05.7404-.16.6304-.29 1.0106-.89 1.0106-1.58v-10.51996c0-.68-.3902-1.29-1.0106-1.58zm-8.99495 11.54996-5.47304-4.70996 5.47304-4.71zm8.00445 0-5.473-4.70996 5.473-4.71z" fill="currentColor"/></svg>