<svg viewBox="0 0 20 20" xmlns="http://www.w3.org/2000/svg"><path d="m17.74 2.82986-7.11-2.669997c-.41-.14999972-.86-.14999972-1.26 0l-7.11 2.669997c-.75.28-1.26 1.04-1.26 1.89v4.28c0 5.56004 3.45 9.87004 8.8 10.98004.07.01.13.02.2.02s.14 0 .2-.02c5.34-1.11 8.8-5.42 8.8-10.98004v-4.29c0-.85-.5-1.6-1.26-1.89zm-.74 6.16c0 4.50004-2.74 8.00004-7 8.98004-4.26-.97-7-4.47-7-8.98004l-.04-4.29 7.04-2.64 7 2.65zm-10 0c0 1.30004.84 2.40004 2 2.82004v2.18h2v-2.18c1.16-.41 2-1.51 2-2.82004 0-1.65-1.35-3-3-3s-3 1.35-3 3zm3-1c.55 0 1 .45 1 1s-.45 1-1 1-1-.45-1-1 .45-1 1-1z" fill="currentColor"/></svg>