<svg viewBox="0 0 20 20" xmlns="http://www.w3.org/2000/svg"><path d="m2 18h4v2h-4c-1.1 0-2-.9-2-2v-4h2zm16 0h-4v2h4c1.1 0 2-.9 2-2v-4h-2zm-16-16h4v-2h-4c-1.1 0-2 .9-2 2v4h2zm16-2h-4v2h4v4h2v-4c0-1.1-.9-2-2-2zm0 10h-2.38l-1.21-2.42c-.27-.53-.82-.85-1.42-.83-.6.03-1.12.41-1.33.97l-1.56 4.15-1.69-5.65c-.19-.63-.76-1.06-1.41-1.07-.65-.03-1.24.4-1.45 1.03l-1.27 3.82h-2.28v2h2.64c.65 0 1.22-.41 1.42-1.03l.89-2.66 1.67 5.55c.19.62.74 1.05 1.39 1.07h.05c.62 0 1.18-.39 1.4-.97l1.67-4.46.84 1.67c.26.51.77.83 1.34.83h2.69z" fill="currentColor"/></svg>