<svg viewBox="0 0 20 20" xmlns="http://www.w3.org/2000/svg"><path d="m16.9994 3.16189c-.6303-.29-1.3507-.19-1.881.26l-5.1028 4.39v-3.08c0-.68-.39025-1.29-1.0106-1.57-.63035-.29-1.35075-.19-1.88104.26l-6.773765 5.82c-.220123.19-.350195.47-.350195.76001 0 .29.130072.57.350195.76l6.753755 5.81c.33018.28.7304.43 1.14063.43.25014 0 .50028-.05.74041-.16.63035-.29 1.02061-.89 1.02061-1.58v-3.08l5.1028 4.39c.3302.28.7304.43 1.1406.43.2502 0 .5003-.05.7404-.16.6304-.29 1.0106-.89 1.0106-1.58v-10.52001c0-.68-.3902-1.29-1.0106-1.58zm-8.99495 11.55001-5.47304-4.71 5.47304-4.71001zm8.00445 0-5.473-4.71 5.473-4.71001z" fill="currentColor"/></svg>