<svg viewBox="0 0 20 20" xmlns="http://www.w3.org/2000/svg"><path d="m9.99202 2.00024c1.64998 0 2.99998 1.35 2.99998 3 0 1.08-.49 3.12-1.7 5.40996-.08.16-.08.35.02.5 1.14 1.73 2.77 3.56 5.02 5.1l-.66 1.97-.23-.15c-2.21-1.47-3.91-3.21-5.18-4.95-.13-.18-.38998-.18-.51998 0-1.27 1.73-2.97 3.47-5.18 4.95l-.23.15-.66-1.97c2.25-1.55 3.88-3.37 5.02-5.1.1-.15.1-.34.02-.5-1.21-2.28996-1.7-4.31996-1.7-5.40996 0-1.65 1.35-3 2.99998-3m-.15998 6.17c.06.14.25998.14.31998 0 .6-1.41.84-2.56.84-3.17 0-.55-.45-1-1-1-.54998 0-.99998.45-.99998 1 0 .6.24 1.76.84 3.17zm.14-8.16999586c-2.76 0-5 2.23999586-5 4.99999586 0 1.47.57 3.51 1.52 5.51996-1.09 1.48-2.43 2.77-3.99 3.84-.73.51-1.05 1.43-.76 2.28l.66 1.97c.2.59.66 1.06 1.25 1.26.21.07.43.11.65.11.39 0 .78-.11 1.11-.34l.23-.15c1.61-1.07 3.06-2.33 4.33998-3.76 1.27 1.43 2.72 2.69 4.34 3.76l.23.15c.33.22.72.34 1.11.34.22 0 .44-.04.65-.11.59-.2 1.05-.67 1.25-1.26l.66-1.97c.28-.85-.03-1.78-.76-2.28-1.56-1.07-2.9-2.36-3.99-3.84.95-2.00996 1.52-4.04996 1.52-5.51996-.02-2.76-2.26-4.99999586-5.01998-4.99999586z" fill="currentColor"/></svg>