<svg viewBox="0 0 20 20" xmlns="http://www.w3.org/2000/svg"><g fill="currentColor"><path d="m7.494 12.0905-2.41124 2.4112 1.41422 1.4142 2.41123-2.4112z"/><path d="m18.2099 1.78991c-2.34-2.339998-6.15-2.339998-8.48999 0l-7.93 7.93c-2.339998 2.33999-2.339998 6.14999 0 8.48999 2.34 2.34 6.15 2.34 8.48999 0l7.93-7.93c2.34-2.33999 2.34-6.14999 0-8.48999zm-9.33999 14.99999c-1.56 1.56-4.1 1.56-5.66 0s-1.56-4.1 0-5.66l3.26-3.25999 5.65999 5.65999zm7.92999-7.92999-3.26 3.25999-5.65999-5.65999 3.25999-3.26c1.56-1.56 4.1-1.56 5.66 0s1.56 4.1 0 5.66z"/></g></svg>