<svg viewBox="0 0 20 20" xmlns="http://www.w3.org/2000/svg"><path d="m9.99978 17.0001h4.00002v2h-4.00002zm6.00002 0v2h4v-2zm0-7.44c0 .8-.31 1.55-.88 2.12l-3.24 3.24c-1.87 1.87-4.37002 2.85-6.91002 2.85-1.43 0-2.86-.31-4.199998-.95-.29-.14-.5-.41-.55-.73-.06-.32.05-.65.28-.88l14.850018-14.860002 1.41 1.410002-1.95 1.95 1.34 1.34 1.95-1.95 1.41 1.41-3.52 3.52v1.51zm-1.26-3.08-1.34-1.34-10.39002 10.38c2.63.69 5.49-.05 7.46002-2.02l3.24-3.24c.19-.19.29-.44.29-.71v-1.51c0-.53.21-1.04.59-1.41z" fill="currentColor"/></svg>