<svg viewBox="0 0 20 20" xmlns="http://www.w3.org/2000/svg"><path d="m10.0021 8.0001c1.1 0 2 .9 2 2s-.9 2-2 2c-1.09997 0-1.99997-.9-1.99997-2s.9-2 1.99997-2zm2.82 4.91-1.73 1 2.01 3.46c-1.97.83-4.22997.83-6.19997 0l2.01-3.46-1.73-1-2.31 3.98c-.2.34-.25.76-.14 1.14s.38.7.72.87c1.42.73 2.95 1.1 4.54997 1.1 1.6 0 3.12-.37 4.55-1.1.35-.18.61-.5.72-.87.11-.38.06-.8-.14-1.14zm2.62-11.22c-.33-.21-.74-.28-1.12-.19-.39.09-.72.34-.92.68l-2.24 3.84 1.73 1.01 1.94-3.33c1.71 1.29 2.84 3.21 3.11 5.3h-3.96v2h4.55c.4 0 .79-.17 1.06-.46s.41-.67001.39-1.06001c-.17-3.15-1.87-6.06999-4.56-7.79999zm-9.42997 7.31h-3.96c.27-2.09 1.4-4.01 3.11-5.3l1.94 3.33 1.73-1.01-2.24-3.84c-.2-.34-.54-.59-.92-.68s-.79-.02-1.12.19c-2.68 1.73-4.380003 4.63999-4.55000347 7.78999-.02000003.39.12000047.78001.39000047 1.06001.27.29.660003.46 1.060003.46h4.56z" fill="currentColor"/></svg>