<svg viewBox="0 0 20 20" xmlns="http://www.w3.org/2000/svg"><path d="m20 7.68c0 5.69-8.48 11.51-9.45 12.15-.17.11-.36.17-.55.17s-.39-.06-.55-.17c-.72-.48-3.26-2.24-5.59-4.72l1.46-1.37c1.77 1.88 3.67 3.32 4.69 4.04 3.05-2.15 8-6.55 8-10.11 0-2.03-1.65-3.68-3.68-3.68-1.49 0-2.82.89-3.4 2.27-.16.37-.52.62-.92.62s-.77-.24-.92-.62c-.57-1.38-1.91-2.27-3.4-2.27-2.03 0-3.68 1.65-3.68 3.68v.32h-2.01v-.32c0-3.12 2.55-5.67 5.68-5.67 1.7 0 3.26.75 4.32 1.99 1.06-1.24 2.62-1.99 4.32-1.99 3.13 0 5.68 2.55 5.68 5.68zm-15.17 3.87 1.17-1.75 3.17 4.75c.19.28.5.45.83.45s.65-.17.83-.45l1.7-2.55h1.46v-2h-2c-.33 0-.65.17-.83.45l-1.17 1.75-3.17-4.75c-.37-.56-1.29-.56-1.66 0l-1.7 2.55h-1.46v2h2c.33 0 .65-.17.83-.45z" fill="currentColor"/></svg>