<svg viewBox="0 0 20 20" xmlns="http://www.w3.org/2000/svg"><path d="m17.76 6.36c-.38-.45-1.15-.45-1.53 0-.37.44-2.24 2.74-2.24 4.53s1.35 3.11 3 3.11 3-1.4 3-3.11-1.86-4.09-2.24-4.53zm-.76 5.64c-.55 0-1-.5-1-1.11 0-.53.47-1.43 1-2.22.53.79 1 1.69 1 2.22 0 .61-.45 1.11-1 1.11zm-7-10h-1.17c-.41-1.16-1.52-2-2.83-2s-2.42.84-2.83 2h-1.17c-1.1 0-2 .9-2 2v10c0 1.1.9 2 2 2h1c0 1.1.9 2 2 2v2h2v-2c1.1 0 2-.9 2-2h1c1.1 0 2-.9 2-2v-10c0-1.1-.9-2-2-2zm0 12h-2c-.55 0-1 .45-1 1v1h-2v-1c0-.55-.45-1-1-1h-2v-2h2v-2h-2v-2h8zm0-8h-8v-2h2c.55 0 1-.45 1-1s.45-1 1-1 1 .45 1 1 .45 1 1 1h2z" fill="currentColor"/></svg>