<svg viewBox="0 0 20 20" xmlns="http://www.w3.org/2000/svg"><path d="m20 2v4h-2v-4h-16v4h-2v-4c0-1.1.9-2 2-2h16c1.1 0 2 .9 2 2zm-2 16h-16v-4h-2v4c0 1.1.9 2 2 2h16c1.1 0 2-.9 2-2v-4h-2zm-9-14v1.03c-1.61.07-3.21.28-4.79.67l.48 1.94c1.43-.35 2.87-.55 4.31-.62v2c-1.4.07-2.8.27-4.15.62l.51 1.94c1.19-.31 2.41-.49 3.64-.56v2c-1.19.07-2.36.26-3.51.59l.54 1.92c.97-.27 1.96-.44 2.96-.51v.96h2v-.96c1 .07 2 .24 2.96.51l.54-1.92c-1.14-.32-2.32-.52-3.51-.59v-2c1.23.07 2.46.25 3.64.56l.51-1.93c-1.35-.35-2.75-.56-4.15-.62v-2c1.45.07 2.89.27 4.31.62l.48-1.94c-1.58-.39-3.19-.61-4.79-.67v-1.03h-2z" fill="currentColor"/></svg>