<svg viewBox="0 0 20 20" xmlns="http://www.w3.org/2000/svg"><g fill="currentColor"><path d="m5 2c-.55228 0-1 .44772-1 1s.44772 1 1 1 1-.44772 1-1-.44772-1-1-1z"/><path clip-rule="evenodd" d="m2 8h2v-3h2v3h3v-3h2v3h3v-3h2v3h2c1.1046 0 2 .89543 2 2v10h-20v-10c0-1.10457.895431-2 2-2zm16 4v-2h-16v2c0 1.1046.89543 2 2 2s2-.8954 2-2h2c0 1.1046.89543 2 2 2 1.1046 0 2-.8954 2-2h2c0 1.1046.8954 2 2 2s2-.8954 2-2zm-5 2.6458c.7329.8304 1.8053 1.3542 3 1.3542.7286 0 1.4117-.1948 2-.5351v2.5351h-16v-2.5351c.58835.3403 1.27143.5351 2 .5351 1.19469 0 2.26705-.5238 3-1.3542.73294.8304 1.80531 1.3542 3 1.3542 1.1947 0 2.2671-.5238 3-1.3542z" fill-rule="evenodd"/><path d="m9 3c0-.55228.44771-1 1-1 .5523 0 1 .44772 1 1s-.4477 1-1 1c-.55229 0-1-.44772-1-1z"/><path d="m15 2c-.5523 0-1 .44772-1 1s.4477 1 1 1 1-.44772 1-1-.4477-1-1-1z"/></g></svg>