<svg viewBox="0 0 20 20" xmlns="http://www.w3.org/2000/svg"><path d="m16 2h-14v2h14zm-16 2c0 1.10457.89543 2 2 2v11c0 1.1046.89543 2 2 2h3.35412c.70514.6224 1.63141 1.0001 2.64588 1.0001h6c2.2091 0 4-1.7909 4-4 0-2.2092-1.7909-4-4-4h-1.9999v-.0001h-2v.0001h-2.0001c-2.20914 0-4 1.7908-4 4 0 .3452.04374.6803.12599.9999h-2.12599v-11h10v5.9999h1.9999.0001v-5.9999c1.1046 0 2-.89543 2-2v-2c0-1.104569-.8954-2-2-2h-14c-1.104569 0-2 .895431-2 2zm10 10.0001h2.0001v4h-2.0001c-1.10457 0-2-.8955-2-2 0-1.1046.89543-2 2-2zm4.0001 0v4h1.9999c1.1046 0 2-.8955 2-2 0-1.1046-.8954-2-2-2z" fill="currentColor" fill-rule="evenodd"/></svg>