<svg viewBox="0 0 20 20" xmlns="http://www.w3.org/2000/svg"><path d="m19.9999 2v7h-2v-4.59l-3.4 3.4c.88 1.17 1.4 2.61 1.4 4.18 0 .48-.05.94-.14 1.4l-1.86-1.39c0-2.76-2.24-5-5-5-.48 0-.94.09-1.38.22l-1.88-1.41c.97-.51 2.08-.81 3.26-.81 1.57 0 3.02.53 4.18 1.4l3.4-3.4h-4.59v-2h7c.55 0 1 .45 1 1zm-11 15c-2.76 0-5-2.24-5-5l-1.86-1.4c-.09.45-.14.92-.14 1.4 0 3.86 3.14 7 7 7 1.18 0 2.28-.29 3.26-.81l-1.88-1.41c-.44.13-.9.22-1.38.22zm-8.599998-10.2 15.999998 12 1.2-1.6-16-12z" fill="currentColor"/></svg>