<svg viewBox="0 0 20 20" xmlns="http://www.w3.org/2000/svg"><path d="m4.9994 14.0026c0 .55-.45 1-1 1s-1-.45-1-1 .45-1 1-1 1 .45 1 1zm1 1c-.55 0-1 .45-1 1s.45 1 1 1 1-.45 1-1-.45-1-1-1zm8-12c-.55 0-1 .45-1 1s.45 1 1 1 1-.45 1-1-.45-1-1-1zm2 2c-.55 0-1 .45-1 1s.45 1 1 1 1-.45 1-1-.45-1-1-1zm2.21 5.28-7.93 7.93c-1.17 1.17-2.71 1.75-4.24 1.75s-3.07-.58-4.24-1.75c-2.350003-2.34-2.350003-6.15-.01-8.49l7.93-7.93c2.34-2.340002 6.15-2.340002 8.49 0 2.34 2.34 2.34 6.15 0 8.49zm-12.83-1.31 5.66 5.66 3.59-3.59-5.66-5.66zm3.49 7.83.76-.76-5.67-5.66-.76.76c-1.56 1.56-1.56 4.1 0 5.66s4.1 1.56 5.66 0zm7.92-13.59c-.78-.78-1.8-1.17-2.83-1.17s-2.05.39-2.83 1.17l-.76.76 5.66 5.66.76-.76c1.56-1.56 1.56-4.1 0-5.66z" fill="currentColor"/></svg>