<svg viewBox="0 0 20 20" xmlns="http://www.w3.org/2000/svg"><path d="m8.01221 10.5053c0 .8304-.66926 1.5007-1.49834 1.5007s-1.49833-.6703-1.49833-1.5007c0-.83046.66925-1.5008 1.49833-1.5008s1.49834.67034 1.49834 1.5008zm5.49389-1.5008c-.8291 0-1.4983.67034-1.4983 1.5008 0 .8304.6692 1.5007 1.4983 1.5007s1.4983-.6703 1.4983-1.5007c0-.83046-.6692-1.5008-1.4983-1.5008zm5.434.98049c.0399.37021.0599.70031.0599 1.02051 0 .6603-.0799 1.3507-.2397 2.031-.05.2201-.1798.4202-.3596.5603l-2.4074 1.8909v1.7509c0 .3002-.1398.5903-.3695.7804-1.5883 1.2806-3.5861 1.981-5.6238 1.981-2.03774 0-4.02553-.7004-5.62375-1.981-.23973-.1901-.36959-.4802-.36959-.7804v-1.7509l-2.40733-1.8909c-.1798-.1401-.29966-.3402-.3596-.5603-.15982-.6803-.23973-1.3707-.23973-2.031 0-.3202.01998-.6403.05993-1.02051-.03995-.35017-.05993-.67033-.05993-.98049.01998-4.96248 4.05549-9.0045 9.01-9.0045 4.9545 0 8.99 4.04202 8.99 9.0045 0 .32016-.02.63032-.0599.98049zm-1.9978.12011c-.01-.0901-.01-.18014 0-.26018.0399-.31015.0599-.58029.0599-.84042 0-3.86193-3.1365-7.0035-6.9922-7.0035-3.85573 0-6.99224 3.14157-6.99224 7.0035 0 .26013.01998.53027.05993.84042.00999.09005.00999.18008 0 .26018-.03995.2901-.05993.5902-.05993.8904 0 .4002.03995.8204.11986 1.2506l2.49723 1.971c.23973.1901.37958.4802.37958.7904v1.7409c2.34739 1.6508 5.64377 1.6508 7.99107 0v-1.7409c0-.3102.1399-.6003.3796-.7904l2.4973-1.971c.0799-.4202.1198-.8404.1198-1.2506 0-.3002-.0299-.6003-.0599-.8904zm-6.9323 1.8909c-.5494 0-.9989.4502-.9989 1.0005v1.0005h1.9978v-1.0005c0-.5503-.4495-1.0005-.9989-1.0005z" fill="currentColor"/></svg>