<svg viewBox="0 0 20 20" xmlns="http://www.w3.org/2000/svg"><path d="m18.25 13.63-4.25-5.95v-3.27l.29-.29c.46-.46.71-1.06.71-1.71 0-1.33-1.08-2.41-2.41-2.41h-5.18c-1.33 0-2.41 1.08-2.41 2.41 0 .65.25 1.25.71 1.71l.29.29v3.27l-4.25 5.95c-.49.69-.75 1.5-.75 2.34 0 2.22 1.81 4.03 4.03 4.03h9.94c2.22 0 4.03-1.81 4.03-4.03 0-.85-.26-1.66-.75-2.34zm-3.28 4.37h-9.94c-1.12 0-2.03-.91-2.03-2.03 0-.43.13-.83.38-1.18l4.25-5.95c.24-.34.37-.74.37-1.16v-3.68c0-.27-.11-.52-.29-.71l-.59-.59c-.08-.08-.12-.18-.12-.29 0-.23.19-.41.41-.41h5.17c.23 0 .41.19.41.41 0 .11-.04.22-.12.29l-.59.59c-.19.19-.29.44-.29.71v3.68c0 .42.13.82.37 1.16l4.25 5.95c.25.35.38.75.38 1.18 0 1.12-.91 2.03-2.03 2.03z" fill="currentColor"/></svg>