<svg viewBox="0 0 20 20" xmlns="http://www.w3.org/2000/svg"><path d="m16.1899 5.23507 1.15-1.15 1.06 1.06 1.41-1.41-3.54-3.540002-1.41 1.410002 1.06 1.06-1.15 1.15-2.83-2.820002-1.41 1.410002.71.71-7.06996 7.07003c-.78.78-.78 2.05 0 2.83l.71.71-4.689999 4.67 1.409999 1.41 4.68-4.68.71.71c.78.78 2.05.78 2.83 0l7.06996-7.07003.71.71 1.41-1.41-2.83-2.83zm-2.12 3.54-1.41-1.41-1.41 1.41 1.41 1.41003-1.41 1.41-1.40996-1.41-1.41 1.41 1.41 1.41-1.41 1.41-2.83-2.83 7.06996-7.07003 2.83 2.83-1.41 1.41z" fill="currentColor"/></svg>