<svg viewBox="0 0 20 20" xmlns="http://www.w3.org/2000/svg"><path d="m18.5981 11.241-.5806-.5405v-1.36141l.5806-.54054c.8709-.8008 1.061-2.07207.4705-3.09309l-.8008-1.38138c-.5906-1.02102-1.7918-1.49149-2.923-1.13113l-.7607.24024-1.1812-.68068-.1702-.77077c-.2402-1.161164-1.2412-1.97197438-2.4224-1.97197438h-1.59159c-1.19119 0-2.19219.81081038-2.45245 1.96196438l-.17017.77077-1.18119.68068-.76076-.24024c-1.13113-.35035-2.33233.11011-2.92292 1.13113l-.800801 1.38138c-.59059 1.02102-.4004 2.29229.480481 3.09309l.58058.54055v1.36131l-.58058.5406c-.870871.8008-1.061061 2.0721-.470471 3.0931l.800801 1.3814c.59059 1.021 1.79179 1.4915 2.92292 1.1311l.76076-.2402 1.18118.6806.17018.7708c.26026 1.1512 1.26126 1.962 2.44244 1.962h1.59159c1.1812 0 2.1822-.8108 2.4424-1.962l.1702-.7708 1.1812-.6806.7608.2402c1.1211.3503 2.3323-.1101 2.9229-1.1311l.8008-1.3814c.5906-1.021.4004-2.2923-.4805-3.0931zm-1.2613 2.0921-.8008 1.3814c-.1201.2002-.3603.3003-.5806.2302l-1.1711-.3704c-.2703-.08-.5606-.05-.8008.0901l-1.942 1.1211c-.2402.1402-.4204.3804-.4804.6507l-.2703 1.2012c-.0501.2302-.2603.3904-.4905.3904h-1.5916c-.23023 0-.44044-.1602-.49049-.3904l-.27027-1.2012c-.06006-.2703-.23023-.5105-.48048-.6507l-1.94195-1.1211c-.15015-.0901-.33033-.1301-.5005-.1301-.1001 0-.2002.02-.3003.05l-1.17117.3704c-.22022.0701-.47047-.03-.58058-.2302l-.8008-1.3814c-.12012-.2002-.08008-.4605.09009-.6206l.91091-.8309c.21021-.1901.32032-.4604.32032-.7407v-2.24224c0-.28028-.12012-.55055-.32032-.74074l-.91091-.83083c-.17017-.16016-.21021-.41041-.09009-.62062l.8008-1.38138c.12012-.2002.36036-.3003.58058-.23023l1.17117.37037c.27027.08008.56056.05005.8008-.09009l1.94195-1.12112c.24024-.14014.42042-.38038.48048-.65065l.27027-1.2012c.05005-.23023.26026-.39039.49049-.39039h1.5916c.2302 0 .4404.16016.4905.39039l.2703 1.2012c.06.27027.2302.51051.4804.65065l1.942 1.12112c.2402.14014.5305.17017.8008.09009l1.1812-.37037c.2302-.07007.4704.02002.5805.23023l.8008 1.38138c.1202.2002.0801.46046-.0901.62062l-.9109.83083c-.2102.19019-.3203.46046-.3203.74074v2.24224c0 .2803.1201.5506.3203.7407l.9109.8309c.1702.1601.2103.4104.0901.6206zm-7.33731-7.31733c-2.21221 0-4.00401 1.79179-4.00401 4.00403 0 2.2122 1.7918 4.004 4.00401 4.004s4.00401-1.7918 4.00401-4.004c0-2.21224-1.7918-4.00403-4.00401-4.00403zm0 6.00603c-1.1011 0-2.002-.9009-2.002-2.002 0-1.10113.9009-2.00203 2.002-2.00203 1.10111 0 2.00201.9009 2.00201 2.00203 0 1.1011-.9009 2.002-2.00201 2.002z" fill="currentColor"/></svg>