<svg viewBox="0 0 20 20" xmlns="http://www.w3.org/2000/svg"><path d="m20 4v12c0 2.39-2.81 4-7 4-1.64 0-3.07-.25-4.2-.7-.84.44-1.79.7-2.8.7-3.31 0-6-2.69-6-6s2.69-6 6-6v-4c0-2.39 2.81-4 7-4s7 1.61 7 4zm-10 10c0-2.21-1.79-4-4-4s-4 1.79-4 4 1.79 4 4 4 4-1.79 4-4zm8 .93c-1.22.68-2.94 1.07-5 1.07-.46 0-.9-.02-1.33-.06-.23.67-.57 1.28-1 1.82.7.15 1.48.24 2.33.24 2.76 0 5-.9 5-2zm0-4c-1.22.68-2.94 1.07-5 1.07-.48 0-.93-.02-1.37-.06.23.63.37 1.31.37 2.02.32.03.66.04 1 .04 2.76 0 5-.9 5-2zm0-4c-1.22.68-2.94 1.07-5 1.07s-3.78-.39-5-1.07v1.07c0 .13.04.26.1.39.74.28 1.42.7 1.99 1.23.82.24 1.82.38 2.91.38 2.76 0 5-.9 5-2zm0-2.93c0-1.1-2.24-2-5-2s-5 .9-5 2 2.24 2 5 2 5-.9 5-2z" fill="currentColor"/></svg>