<svg viewBox="0 0 20 20" xmlns="http://www.w3.org/2000/svg"><path d="m15.0002 10c0 1.65-.5 3.19-1.37 4.47l-1.66-1.12c.65-.96 1.02-2.11 1.02-3.35 0-1.23995-.38-2.38995-1.02-3.34995l1.66-1.12c.86 1.28 1.37 2.81 1.37 4.46995zm2 0c0 2.07-.63 3.99-1.71 5.58l1.66 1.12c1.29-1.91 2.05-4.22 2.05-6.7 0-2.47995-.76-4.77995-2.05-6.69995l-1.66 1.12c1.08 1.6 1.71 3.52 1.71 5.57995zm-6.2 6h-2.14l-.77001-2h-3.77999l-.77 2h-2.14l3.87-10.05995h1.87l3.87 10.05995zm-3.68-4-1.12-2.90995-1.12 2.90995z" fill="currentColor"/></svg>