<svg viewBox="0 0 20 20" xmlns="http://www.w3.org/2000/svg"><path d="M16.014 9.048c.57 0 1.071.095 1.502.287.434.192.773.454 1.016.786.247.332.37.708.37 1.125 0 .46-.159.835-.478 1.125a2.196 2.196 0 0 1-1.157.537v.058c.626.077 1.107.282 1.444.614.337.332.505.74.505 1.22 0 .444-.138.838-.415 1.183-.277.35-.66.622-1.15.818-.486.2-1.043.3-1.67.3-.609 0-1.152-.1-1.63-.3-.472-.196-.848-.468-1.124-.818a1.966 1.966 0 0 1-.435-1.208h1.61c.013.311.17.559.467.742.303.183.674.274 1.112.274.46 0 .842-.102 1.145-.307.302-.2.454-.466.454-.799 0-.323-.16-.59-.48-.798-.315-.21-.746-.314-1.291-.314h-.722V12.41h.722c.447 0 .818-.098 1.112-.294.294-.196.441-.456.441-.78a.91.91 0 0 0-.377-.748c-.247-.196-.573-.294-.978-.294-.413 0-.767.096-1.06.288-.295.192-.448.445-.46.76H12.97c.008-.455.147-.854.416-1.194a2.687 2.687 0 0 1 1.092-.806 3.848 3.848 0 0 1 1.535-.294zm-13.757.579h6.525V3.938h1.983V17.03H8.782v-5.708H2.257v5.708H.28V3.94h1.976v5.688z" fill="currentColor"/></svg>