<svg viewBox="0 0 20 20" xmlns="http://www.w3.org/2000/svg"><path d="M2.257 9.627h6.525V3.938h1.983V17.03H8.782v-5.708H2.257v5.708H.28V3.94h1.976v5.688zm13.705-.58c.588 0 1.101.106 1.54.314.439.21.78.492 1.022.85.248.358.371.763.371 1.215 0 .358-.071.69-.216.997-.145.307-.371.617-.678.932-.307.316-.701.666-1.183 1.05l-1.483 1.252v.058h3.746v1.284H13.06v-1.138l3.036-2.601c.277-.239.511-.454.703-.646.192-.192.336-.379.434-.562.103-.188.154-.388.154-.6 0-.359-.14-.64-.422-.845-.277-.208-.62-.313-1.028-.313-.435 0-.785.113-1.05.339-.264.226-.396.529-.396.908h-1.514c0-.758.279-1.364.836-1.815.559-.452 1.275-.678 2.149-.678z" fill="currentColor"/></svg>