<svg viewBox="0 0 20 20" xmlns="http://www.w3.org/2000/svg"><path d="M3.65 11c.553 0 1.032.089 1.437.267.407.175.72.422.94.74.223.32.334.695.334 1.124 0 .265-.055.53-.165.793-.11.26-.308.55-.593.866-.286.317-.691.695-1.217 1.133l-.648.54v.04h2.698V18H1.135v-1.349l2.576-2.13c.17-.142.317-.275.438-.399.124-.126.218-.255.284-.388a.96.96 0 0 0 .101-.441.861.861 0 0 0-.115-.455.742.742 0 0 0-.31-.29.973.973 0 0 0-.459-.105.973.973 0 0 0-.459.105.726.726 0 0 0-.302.306 1.035 1.035 0 0 0-.109.493H1c0-.486.11-.904.327-1.254.218-.35.526-.621.924-.81.398-.189.864-.283 1.4-.283Zm14.352 6h-10v-2h10v2Zm0-6h-10V9h10v2ZM4.962 9h-1.9V3.75h-.04l-1.532.916V3.053L3.213 2h1.75v7Zm13.04-4h-10V3h10v2Z" fill="currentColor"/></svg>