<svg viewBox="0 0 20 20" xmlns="http://www.w3.org/2000/svg"><path d="m14 12c2.21 0 4-1.79 4-4s-1.79-4-4-4-4 1.79-4 4 1.79 4 4 4zm0-6c1.1 0 2 .9 2 2s-.9 2-2 2-2-.9-2-2 .9-2 2-2zm6 14h-2c0-2.21-1.79-4-4-4s-4 1.79-4 4h-2c0-1.75.76-3.32 1.96-4.42-.21-2.01-1.9-3.58-3.96-3.58-2.21 0-4 1.79-4 4h-2c0-3.31 2.69-6 6-6 2.76 0 5.09 1.88 5.78 4.43.69-.27 1.43-.43 2.22-.43 3.31 0 6 2.69 6 6zm-14-12c2.21 0 4-1.79 4-4s-1.79-4-4-4-4 1.8-4 4 1.79 4 4 4zm0-6c1.1 0 2 .9 2 2s-.9 2-2 2-2-.9-2-2 .9-2 2-2z" fill="currentColor"/></svg>