<svg viewBox="0 0 20 20" xmlns="http://www.w3.org/2000/svg"><path d="m13.0002 5c0-2.76-2.24-5-4.99996-5-2.76 0-5 2.24-5 5s2.24 5 5 5c2.75996 0 4.99996-2.24 4.99996-5zm-4.99996 3c-1.65 0-3-1.35-3-3s1.35-3 3-3 2.99996 1.35 2.99996 3-1.34996 3-2.99996 3zm0 4v2c-3.31 0-6 2.69-6 6h-1.99999586c0-4.41 3.58999586-8 7.99999586-8zm11.27996-.94-1.93-1.93c-.68-.68-1.76-.71-2.4-.08l-5.30996 5.31c-.25.25-.4.57-.45.92l-.4 3.21c-.04.31.07.61.29.83.19.19.44.29.71.29h.12l3.21996-.4c.35-.04.67-.2.92-.45l5.31-5.31c.64-.64.6-1.71-.08-2.4zm-6.54 6.18-1.8.23.23-1.8 4.95-4.95 1.58 1.58-4.95 4.95z" fill="currentColor"/></svg>